<svg width="1208.85" height="660.12" viewBox="0 0 1208.85 660.12" xmlns="http://www.w3.org/2000/svg" xmlns:xlink="http://www.w3.org/1999/xlink" xml:space="preserve" overflow="visible"><defs></defs><g><g><path d="M76.86 460.15C109.67 450.25 146.59 454.91 175.92 472.65 205.24 490.39 226.51 520.93 232.98 554.58 253.07 546.59 277.46 550.76 293.76 564.96 303.47 526.25 339.03 495.46 378.73 491.38 418.43 487.3 459.51 510.22 483.16 539.27 497.64 516.88 526.65 504.96 552.68 510.71 559.19 460.21 599.43 415.8 649.04 404.37 698.65 392.93 754.27 415.25 782.23 457.81 804.94 435.82 846.13 437.54 868.25 457.33 880.73 416.61 916.38 383.89 958.02 374.93 999.65 365.97 1045.61 381.13 1073.74 413.1 1081.4 390.95 1100.63 373.16 1123.31 367.24 1145.99 361.32 1171.46 367.46 1188.96 383.05L1182.75 622.08 82.76 623.38 76.86 460.15Z" fill="#FFEDBB"/><g><path d="M561.45 575.7C567.06 553.19 582.03 533.17 602.03 521.43 622.03 509.68 646.81 506.36 669.2 512.42 688.25 495.64 717.38 491.39 740.44 502.01 759.49 468.47 796.44 445.83 834.97 444.08 873.5 442.33 912.35 461.53 934.37 493.21 952.54 481.95 978.01 484.17 993.97 498.4 995.82 470.93 1016.89 445.83 1043.62 439.24 1070.36 432.65 1100.67 445.09 1115.07 468.56 1134.98 456.18 1163.61 460.51 1178.98 478.21 1174.73 513.57 1170.47 548.93 1166.22 584.29 961.91 586.22 757.58 584.31 561.45 575.7Z" fill="#FFFFFF"/><path d="M619.65 585.69C612.26 560.01 654.7 528.17 677.47 524.34 700.24 520.51 724.48 526.3 743.06 540.02 753.2 531.75 768.55 530.59 779.82 537.24 794.87 511.25 822.18 492.73 851.89 488.35 881.6 483.97 913.09 493.82 935.01 514.36 945.9 486.91 972.73 466.48 1002.08 463.28 1031.43 460.08 1062.03 474.26 1078.57 498.72 1089.65 493.82 1104.01 498.22 1110.43 508.5 1118.01 494.75 1133.95 486.09 1149.61 487.19 1165.27 488.29 1179.84 499.1 1186.57 513.5 1182.24 534.81 1177.91 556.13 1173.59 577.44 994.67 581.21 815.76 585.3 636.85 589.69 631.21 581.04 624.6 597.5 619.65 585.69Z" fill="#FFFAE5"/></g><path d="M1000.6 127.56C991.38 109.35 964.45 103.25 948.29 115.72 946.3 93.7 926.68 76.32 905.28 70.75 883.89 65.17 861.19 69.17 839.87 75 829.81 77.75 819.5 81.11 811.83 88.17 804.16 95.24 799.86 107 804.35 116.41 788.03 107.94 765.22 116.72 758.79 133.95 744.29 129.13 727.79 130.71 714.47 138.2 701.15 145.69 691.23 158.98 687.83 173.87 688.63 173.67 1014.02 173.67 1014.51 175.17 1011.04 159.6 1008.68 143.53 1000.6 127.56Z" fill="#FFFFFF"/><path d="M1025.53 225.73C1025.53 225.73 1200.24 225.73 1202.39 225.98 1207.2 209.69 1195.29 190.55 1178.54 187.67 1190.48 171.03 1185.06 145.42 1168.77 133.01 1152.48 120.6 1128.36 121.16 1111.06 132.12 1093.76 143.08 1083.21 162.95 1080.84 183.29 1068.85 176.82 1053.37 177.42 1041.91 184.79 1030.45 192.15 1023.49 206 1025.53 225.73Z" fill="#FFFFFF"/><path d="M92.27 134.34C92.27 134.34 262.99 134.34 262.19 132.62 253.93 112.51 227.66 102.1 207.87 111.1 204.43 95.01 189.89 81.94 173.53 80.22 157.17 78.5 140.23 88.25 133.51 103.27 124.88 96.66 112.09 96.11 102.93 101.95 93.77 107.79 88.87 119.62 92.27 134.34Z" fill="#FFFFFF"/><path d="M0 572.17C0 572.17 159.95 572.17 160.69 569.1 158.44 562.25 153.07 556.49 146.4 553.76 139.73 551.03 131.86 551.38 125.46 554.7 124.83 545.47 120.32 536.47 112.99 530.82 105.66 525.18 95.56 523.14 86.75 525.97 77.94 528.81 70.81 536.61 69.24 545.73 65.74 542.21 59.33 542.22 55.85 545.76 46.18 539.43 33.15 538.62 22.77 543.68 12.37 548.75 4.99 559.52 0 572.17Z" fill="#FFFFFF"/></g><g><g><path d="M669.94 660.12C659.56 525.16 700.38 383.21 770.41 267.38 840.44 151.54 947.34 58.39 1067.87 6.44 1092.79 13.42 1117.71 20.4 1142.63 27.37 1045.72 96.61 968.18 191.5 914.38 297.76 860.58 404.01 830.13 521.39 819.61 640.02 773.16 639.59 718.67 646.79 669.94 660.12Z" fill="#FF6369"/><path d="M1208.85 27.13C1078.06 182.45 1027.2 410.02 1059.31 616.38 1009.7 618.56 958.31 604.73 910.12 616.73 888.26 500.92 901 378.81 946.29 270 991.58 161.19 1069.25 66.1 1166.82 0 1181.84 8 1186.86 13 1208.85 27.13Z" fill="#ACE882"/><path d="M792.38 647.36C792.38 518.87 805.88 398.11 864.69 287.45 923.5 176.79 1012.3 73.03 1115.36 6.44 1130.4 8.93 1157.45 18.08 1172.49 20.57 1000.82 167.86 902.4 396.69 913.53 622.61 881.1 624.51 848.68 626.41 792.38 647.36Z" fill="#FFCB63"/></g><path d="M417.73 618.32C433.66 588.97 460.18 567.29 489.73 559.46 519.29 551.63 551.51 557.75 577.22 576.07 590.33 562.84 610.02 558.7 626.43 565.73 643.4 540.51 671.86 525.88 699.74 528.04 727.61 530.2 754.06 549.1 767.85 576.71 781.03 568.16 798.87 570.12 810.35 581.39 828.04 551.22 857.21 530.08 888.74 524.56 920.27 519.04 953.69 529.23 978.55 551.95 1009.36 513.21 1069.69 512.35 1101.35 550.2 1108.46 543.84 1119.2 543.36 1126.73 549.07 1138.87 527.85 1165.54 519.32 1185.64 530.23 1182 559.98 1178.36 589.73 1174.72 619.48 921.55 621.25 668.38 623.03 417.73 618.32Z" fill="#FFFFFF"/></g></g></svg>