<svg width="578.87" height="408.56" viewBox="0 0 578.87 408.56" xmlns="http://www.w3.org/2000/svg" xmlns:xlink="http://www.w3.org/1999/xlink" xml:space="preserve" overflow="visible"><defs></defs><g><g><path d="M145.23 190.79C140.63 185.07 135.98 179.27 132.93 172.59 129.87 165.91 128.52 158.16 131.25 150.85 124.81 147.22 118.58 143.19 112.63 138.8 109.03 145.38 105.41 151.99 102.93 159.07 100.45 166.15 99.15 173.78 100.32 181.18 101.37 187.87 104.4 194.12 108.24 199.71 112.07 205.29 116.71 210.27 121.32 215.23 128.27 206.47 136.06 198.39 145.23 190.79Z" fill="#FF8C6D"/><g><path d="M111.49 141.48C108.47 137.88 105.32 134.01 104.7 129.36 104.56 128.31 104.67 127.02 105.6 126.51 106.33 126.11 107.24 126.38 108.01 126.7 110.35 127.69 112.51 129.14 114.32 130.92 113.53 127.42 112.57 124 113.07 120.6 113.26 119.3 113.82 117.87 115.06 117.44 115.95 117.13 116.97 117.47 117.69 118.09 118.41 118.7 118.87 119.55 119.28 120.41 120.77 123.55 121.58 126.96 122.39 130.34 123.3 126.94 124.15 123.58 125 120.21 125.31 119 125.63 117.74 126.4 116.75 127.16 115.76 128.49 115.08 129.68 115.46 130.54 115.73 131.17 116.5 131.5 117.34 131.83 118.18 131.89 119.1 131.92 120 132.05 123.77 131.73 127.55 131.41 131.31 133.5 129.04 136.07 127.15 138.9 125.83 140.09 125.27 141.6 124.85 142.65 125.64 143.41 126.22 143.65 127.3 143.48 128.25 143.31 129.19 142.8 130.04 142.3 130.86 139.41 135.62 136.52 140.38 133.63 145.14 136.1 145.41 138.49 146.02 140.81 146.84 141.71 147.16 142.72 147.65 142.88 148.59 142.98 149.18 142.67 149.79 142.22 150.19 141.77 150.59 141.2 150.83 140.64 151.03 136.82 152.42 132.65 152.83 128.4 152.89 121.81 151.06 116 146.85 111.49 141.48Z" fill="#FF8C6D"/><path d="M130.77 143.31C128.9 140.78 125.78 139.22 122.63 139.25" stroke="#E0483A" stroke-linecap="round" stroke-linejoin="round" stroke-miterlimit="10" fill="none"/></g></g><g><g><path d="M283.11 214.42C287.55 215.97 292.28 217.53 296.85 216.45 297.88 216.21 299.04 215.65 299.19 214.6 299.31 213.77 298.73 213.02 298.15 212.42 296.39 210.58 294.28 209.08 291.96 208.03 295.51 207.52 299.05 207.2 302.05 205.53 303.19 204.89 304.34 203.86 304.29 202.55 304.26 201.61 303.58 200.78 302.75 200.33 301.92 199.88 300.96 199.74 300.02 199.67 296.55 199.4 293.08 199.85 289.63 200.29 292.48 198.23 295.33 196.24 298.17 194.25 299.2 193.53 300.25 192.78 300.91 191.72 301.57 190.65 301.72 189.18 300.95 188.19 300.39 187.48 299.45 187.16 298.55 187.16 297.65 187.15 296.77 187.42 295.92 187.72 292.35 188.94 288.93 190.58 285.53 192.22 286.91 189.46 287.76 186.39 287.99 183.27 288.09 181.96 287.95 180.4 286.83 179.7 286.01 179.19 284.92 179.36 284.1 179.85 283.28 180.35 282.67 181.12 282.08 181.88 278.66 186.27 275.24 190.66 271.82 195.06 270.69 192.85 269.27 190.83 267.68 188.95 267.07 188.22 266.24 187.45 265.31 187.64 264.72 187.76 264.26 188.26 264.05 188.82 263.83 189.38 263.82 190 263.82 190.6 263.88 194.67 264.98 198.71 266.44 202.7 270.5 208.18 276.5 212.11 283.11 214.42Z" fill="#FF8C6D"/><path d="M274.55 197.05C277.58 197.9 280.15 200.26 281.24 203.21" stroke="#E0483A" stroke-linecap="round" stroke-linejoin="round" stroke-miterlimit="10" fill="none"/></g><path d="M229.05 216C243.58 217.75 258.82 211.66 267.48 200.39 274.73 203.36 281.61 207.23 287.16 212.36 276.06 235.66 250.85 251.51 225.04 251.4 226.11 239.23 227.19 227.07 229.05 216Z" fill="#FF8C6D"/></g><g><g><path d="M72.65 269.56C71.17 269.27 69.7 268.97 67.67 268.65 67.33 278.66 68.47 288.94 72.87 297.94 77.27 306.94 85.28 314.53 95.13 316.6 96.46 307.99 95.27 299.01 91.74 291.04 88.21 283.08 84.16 271.85 72.65 269.56Z" fill="#DE7F26"/><path d="M148.02 333.36C146.14 336.46 144.92 340.24 145.22 343.7 162.32 346.5 180.23 343.49 195.55 335.38 188.63 330.53 180.26 328.58 171.81 328.7 163.35 328.82 155.04 330.79 148.02 333.36Z" fill="#DE7F26"/></g><g><path d="M40.2 315.34C43.82 302.21 50.12 289.82 58.62 279.18 61.03 276.16 63.66 273.24 66.98 271.26 70.29 269.28 74.39 268.33 78.85 269.91 88.85 278.51 96.41 289.91 99.83 301.39 83.1 313.69 67.81 327.97 54.41 343.83 51.23 333.56 46.81 323.69 40.2 315.34Z" fill="#FF8C6D"/><g><path d="M55.07 348.63C54.5 350.14 53.09 351.12 51.56 351.19 51.11 351.22 50.65 351.16 50.19 351.02 35.87 346.5 20.4 326.75 15.53 313.36 15.13 312.26 14.98 311.03 15.15 309.87 15.21 309.34 15.34 308.83 15.54 308.34 16.71 305.45 20.33 304.49 23.45 304.38 34.77 303.97 46.12 309.95 52.18 319.53 57.59 328.07 58.61 339.19 55.07 348.63Z" fill="#6CC4BD"/><path d="M51.56 351.19C51.11 351.22 50.65 351.16 50.19 351.02 35.87 346.5 20.4 326.75 15.53 313.36 15.13 312.26 14.98 311.03 15.15 309.87 16.47 308.86 18.19 308.37 19.87 308.39 22.06 308.4 24.18 309.16 26.16 310.1 35.19 314.4 41.89 322.55 46.54 331.41 49.2 336.47 51.3 341.93 51.72 347.64 51.81 348.82 51.82 350.04 51.56 351.19Z" fill="#BDF0E6"/></g></g><g><path d="M180.96 384.87C189.67 367.64 193.62 348.03 192.25 328.71 179.18 327.29 165.76 329.24 152.84 334.64 154.43 354.29 154.18 374.09 152.09 393.7 160.52 388.21 170.32 384.83 180.96 384.87Z" fill="#FF8C6D"/><g><path d="M148.45 401.57C147.96 403.11 148.45 404.75 149.61 405.76 149.94 406.06 150.34 406.3 150.79 406.48 164.81 411.85 189.21 406.01 201.35 398.56 202.35 397.95 203.23 397.08 203.82 396.06 204.1 395.61 204.32 395.13 204.47 394.62 205.35 391.63 203.11 388.63 200.74 386.6 192.13 379.24 179.53 376.86 168.82 380.59 159.27 383.9 151.55 391.98 148.45 401.57Z" fill="#6CC4BD"/><path d="M149.61 405.76C149.94 406.06 150.34 406.3 150.79 406.48 164.81 411.85 189.21 406.01 201.35 398.56 202.35 397.95 203.23 397.08 203.82 396.06 203.41 394.45 202.37 392.99 201.05 391.96 199.33 390.61 197.2 389.88 195.06 389.39 185.31 387.14 175 389.35 165.85 393.4 160.62 395.71 155.58 398.68 151.7 402.88 150.89 403.75 150.12 404.69 149.61 405.76Z" fill="#BDF0E6"/></g></g><g><path d="M118.86 268.03C101.93 265.35 84.58 265.36 67.94 268.68 81.69 280.35 90.93 297.19 94.95 316.59 106.66 316.39 118.37 315.83 132.17 314.85 135.77 324.26 139.38 333.67 145.21 343.69 160.57 335.47 178.54 332.23 195.54 335.37 195.39 320.31 193.44 305.28 189.44 290.56 166.66 282.99 144.63 272.12 118.86 268.03Z" fill="#FFBE45"/><g><path d="M132.94 313.85C137.66 301.06 143.81 288.79 151.24 277.35" stroke="#DE7F26" stroke-linecap="round" stroke-linejoin="round" stroke-miterlimit="10" fill="none"/><path d="M122.51 274.44C136.14 286.53 154.56 293.07 172.76 292.28" stroke="#DE7F26" stroke-linecap="round" stroke-linejoin="round" stroke-miterlimit="10" fill="none"/><path d="M124.22 290.74C133.67 300.94 148.62 305.72 162.23 302.88" stroke="#DE7F26" stroke-linecap="round" stroke-linejoin="round" stroke-miterlimit="10" fill="none"/></g></g></g><g><path d="M113.91 266.91C122.05 256.94 129.81 246.66 137.14 236.08 129.2 229.86 122.2 223.09 115.84 215.76 121.7 201.91 131.88 191.3 144.27 184.84 153.84 191.56 162.87 197.8 174.13 205.14 193.55 208.07 212.97 211 233.69 214.42 234.59 228.32 232.69 242.39 227.89 256.69 219.53 255.77 211.17 254.86 203.66 254.38 200.26 268.44 196.11 282.32 191.22 295.93" fill="#6CC4BD"/><g><path d="M205.43 217.37C202.01 228.7 201.2 240.81 203.08 252.49" stroke="#46949C" stroke-linecap="round" stroke-linejoin="round" stroke-miterlimit="10" fill="none"/><path d="M154.8 210.52C149.33 218.24 143.86 225.95 138.39 233.67" stroke="#46949C" stroke-linecap="round" stroke-linejoin="round" stroke-miterlimit="10" fill="none"/><path d="M129.35 263.25C147.03 266.67 165.25 267.27 183.11 265.02" stroke="#46949C" stroke-linecap="round" stroke-linejoin="round" stroke-miterlimit="10" fill="none"/></g></g><g><path d="M165.58 203.21C163.33 209.16 165.67 216.38 170.7 220.27 175.73 224.16 182.99 224.7 188.76 222.04 194.54 219.38 198.75 213.8 200.24 207.61 188.43 206.59 176.66 204.96 165.58 203.21Z" fill="#FF8C6D"/><path d="M200.71 208.91C189.81 213.66 177.43 215.21 165.67 213.3 164.52 210.31 164.36 206.8 165.31 203.68" fill="#3E2336"/></g><g><path d="M182.74 103.06C170.6 107.2 161.08 117.21 155.36 128.69 149.65 140.17 147.39 153.07 146.54 165.94 141.46 171.02 140.89 179.46 143.79 186.04 146.68 192.62 152.43 197.55 158.61 201.22 172.98 209.75 190.71 212.44 206.97 208.56 223.23 204.68 237.83 194.27 245.37 179.14 252.31 160.79 248.81 138.88 236.48 123.61 224.16 108.34 202.55 96.3 182.74 103.06Z" fill="#FF8C6D"/><path d="M234.96 185.65C230.96 173.54 230.22 160.38 232.82 147.9 229.5 143.37 227.38 137.97 226.73 132.39 227 135.51 226.98 139.28 224.35 140.97 221.36 142.9 217.39 140.54 215.2 137.74 212.26 133.97 210.6 129.21 210.57 124.43 207.09 128.03 202.75 130.79 198 132.4 194.96 133.43 191.44 133.94 188.68 132.31 185.91 130.68 184.85 126.2 187.4 124.26 182.08 127.18 176.16 129 170.12 129.57 167.69 129.8 165.13 129.81 162.92 128.75 160.72 127.69 159 125.28 159.89 123.36 154.91 130.85 151.22 139.2 149.09 147.73 147.14 146.26 145.18 144.77 143.6 142.91 142.02 141.05 140.83 138.77 140.7 136.33 140.57 133.89 141.66 131.32 144.07 130.41 139.03 126.63 135.29 121.16 133.61 115.1 132.71 111.86 132.43 108.2 134.09 105.27 135.81 102.24 139.33 100.58 142.8 100.22 146.27 99.86 149.75 100.61 154.16 101.72 151.72 97.21 150.33 91.95 151.27 86.91 152.22 81.87 155.82 77.18 160.78 75.85 166.39 74.34 172.18 77.22 177.05 80.38 181.92 83.53 186.92 87.2 192.71 87.46 190.92 82.62 191.68 76.82 194.97 72.84 198.26 68.86 204.04 67.01 208.92 68.68 213.67 70.31 216.89 74.71 219.27 79.14 221.64 83.57 223.56 88.37 227.05 91.98 230.26 95.3 234.53 97.34 238.19 100.15 241.85 102.96 245.09 107.11 245.31 112.37 252.81 113.54 258.89 119.65 261.63 126.72 264.37 133.8 264.2 141.69 262.92 149.17 260.65 162.53 254.93 175.29 246.47 185.88 242.99 185.16 239.51 184.42 234.96 185.65Z" fill="#69253A"/><path d="M229.96 184.11C233.17 182.13 236.73 180.53 240.5 180.31 244.27 180.1 248.28 181.48 250.5 184.53 252.21 186.87 252.7 189.96 252.16 192.8 251.61 195.64 250.09 198.23 248.13 200.36 244.67 204.13 239.65 206.57 234.54 206.46 229.42 206.35 224.33 203.52 221.96 198.98" fill="#FF8C6D"/><g><g><path d="M201.85 180.62C201.55 176.72 205.63 173.22 210.97 172.81 216.31 172.39 220.89 175.21 221.2 179.11 221.5 183.01 217.42 186.51 212.08 186.92 206.74 187.34 202.16 184.52 201.85 180.62Z" fill="#FB6F60"/><path d="M198.8 172.62C199.4 169.56 201.78 167.46 204.12 167.92 206.45 168.38 207.86 171.23 207.25 174.29 206.65 177.35 204.27 179.45 201.93 178.99 199.6 178.52 198.2 175.67 198.8 172.62Z" fill="#3E2336"/></g><g><path d="M165.68 173.48C167.44 169.99 164.99 165.2 160.21 162.79 155.43 160.37 150.12 161.24 148.36 164.73 146.6 168.22 149.05 173.01 153.83 175.42 158.61 177.84 163.91 176.97 165.68 173.48Z" fill="#FB6F60"/><path d="M171.54 167.24C172.14 164.18 170.74 161.33 168.41 160.87 166.08 160.41 163.7 162.51 163.09 165.57 162.49 168.63 163.89 171.48 166.22 171.94 168.56 172.4 170.94 170.29 171.54 167.24Z" fill="#3E2336"/></g><path d="M175.53 175.29C175.9 172.85 178.02 170.78 180.48 170.47 182.93 170.16 185.5 171.64 186.47 173.91" stroke="#E0483A" stroke-linecap="round" stroke-linejoin="round" stroke-miterlimit="10" fill="none"/><g><path d="M195.18 194.29C193.15 198.09 188.73 200.34 184.42 200.21 180.11 200.08 176.02 197.76 173.3 194.41 173.03 194.08 172.78 193.75 172.54 193.4 170.3 190.23 169.12 186.36 168.82 182.49 169.15 182.51 169.49 182.52 169.82 182.54L169.83 182.54C178.61 182.92 187.11 182.39 195.27 180.41 195.48 181.12 195.67 181.84 195.85 182.58L195.85 182.59C195.96 183.06 196.07 183.54 196.16 184.02 196.83 187.51 196.87 191.15 195.18 194.29Z" fill="#3E2336"/><path d="M195.18 194.29C193.15 198.09 188.73 200.34 184.42 200.21 180.11 200.08 176.02 197.76 173.3 194.41 173.03 194.08 172.78 193.75 172.54 193.4 174.52 190.44 177.21 187.95 180.32 186.22 181.36 185.64 182.44 185.14 183.56 184.74 186.71 183.6 190.12 183.22 193.45 183.58 194.36 183.67 195.26 183.82 196.16 184.02 196.83 187.51 196.87 191.15 195.18 194.29Z" fill="#FA4564"/><path d="M195.85 182.58 195.85 182.59C195.06 182.94 194.26 183.27 193.45 183.58L193.44 183.58C189.25 185.16 184.8 186.05 180.32 186.22 178.94 186.27 177.56 186.26 176.18 186.17 173.62 186.01 171.29 184.63 169.83 182.54 178.61 182.92 187.11 182.39 195.27 180.41 195.48 181.12 195.67 181.84 195.85 182.58Z" fill="#FFFFFF"/></g><path d="M200.3 145.23C207.2 144.31 214.52 147.87 217.9 153.8 219.52 149.12 216.97 143.44 212.34 141.37 207.7 139.31 201.62 141.16 200.3 145.23Z" fill="#69253A"/><path d="M156.75 144.61C161.36 140 169.28 138.83 175.21 141.89 174.36 138.9 171.82 136.4 168.73 135.49 165.64 134.58 162.11 135.31 159.71 137.34 157.31 139.37 156.12 142.64 156.75 144.61Z" fill="#69253A"/></g></g></g><g><g><path d="M381.86 227.86C376.9 249.98 374.45 272.65 374.91 294.82 383.6 293.7 392.58 294.95 401.07 297.43 403.72 277.3 409.21 257.54 417.33 238.93 405.63 233.4 393.01 229.8 381.86 227.86Z" fill="#FF8C6D"/><g><path d="M399.89 312C399.19 313.1 398.31 313.99 397.3 314.67 394.29 316.72 390.15 316.94 386.2 316.04 380.7 314.79 375.2 311.39 371.3 307.3 365.53 301.27 360.24 293.91 361.08 285.74 361.09 285.68 361.09 285.6 361.11 285.54 362.22 276.05 374.5 264.2 390.4 276.81 395.02 280.48 401.85 290.41 402.88 298.35 403.48 303.03 402.41 308.01 399.89 312Z" fill="#3E2336"/><path d="M397.3 314.67C394.29 316.72 390.15 316.94 386.2 316.04 380.7 314.79 375.2 311.39 371.3 307.3 365.53 301.27 360.24 293.91 361.08 285.74 361.09 285.68 361.09 285.6 361.11 285.54 361.35 285.13 361.63 284.75 361.93 284.38 364.84 280.91 369.71 279.45 374.21 280.01 378.71 280.56 382.84 282.9 386.25 285.89 393.05 291.88 397.28 300.69 397.7 309.75 397.77 311.4 397.72 313.08 397.3 314.67Z" fill="#633952"/></g></g><g><path d="M333.33 286.47C326.41 280.78 319.7 274.85 313.2 268.69 315.48 245.58 324.76 224.27 339.09 210.59 350.34 213.89 360.98 219.23 371.85 227.9 354.76 243.79 341.6 263.87 333.33 286.47Z" fill="#FF8C6D"/><g><path d="M334.26 294.99C333.92 297.27 332.63 299.13 330.87 300.26 329.01 301.47 326.61 301.84 324.33 301.01 310.14 295.86 298.59 287.36 289.88 276.47 287.57 273.58 285.33 269.88 286.67 266.34 286.94 265.61 287.37 264.9 287.97 264.2 288.82 263.21 289.91 262.49 291.07 261.92 302.62 256.21 317.56 259.13 326.36 268.6 332.81 275.51 335.64 285.59 334.26 294.99Z" fill="#3E2336"/><path d="M330.88 300.26C329.02 301.47 326.62 301.84 324.34 301.01 310.15 295.86 298.6 287.36 289.89 276.47 287.58 273.58 285.34 269.88 286.68 266.34 290.61 266.01 294.84 267.3 298.54 268.93 310.14 274.04 320.29 282.33 327.63 292.66 329.21 294.88 330.69 297.63 330.88 300.26Z" fill="#633952"/></g></g><g><g><path d="M344.37 127.6C326.47 114.44 314.45 93.56 312.05 71.47 319.38 69.07 326.71 66.68 334.04 64.22 338.89 78.58 348.61 91.25 361.22 99.67 354.74 107.8 349.1 116.6 344.37 127.6Z" fill="#FF8C6D"/><g><path d="M316.08 74.09C311.15 74.45 305.92 74.76 301.57 72.42 300.59 71.89 299.56 71.01 299.7 69.9 299.81 69.03 300.6 68.42 301.35 67.97 303.64 66.58 306.19 65.64 308.83 65.19 305.36 63.71 301.85 62.42 299.27 59.91 298.28 58.95 297.4 57.59 297.8 56.27 298.09 55.32 299 54.66 299.97 54.43 300.93 54.2 301.95 54.32 302.92 54.5 306.51 55.17 309.92 56.57 313.3 57.96 310.96 55.1 308.61 52.3 306.27 49.5 305.42 48.49 304.56 47.44 304.18 46.18 303.8 44.92 304.04 43.37 305.1 42.59 305.86 42.03 306.9 41.95 307.82 42.19 308.74 42.43 309.56 42.94 310.34 43.47 313.64 45.68 316.66 48.28 319.67 50.86 319.02 47.68 318.99 44.33 319.61 41.1 319.87 39.74 320.43 38.19 321.76 37.79 322.73 37.5 323.79 37.96 324.49 38.69 325.19 39.42 325.6 40.37 325.99 41.3 328.27 46.69 330.55 52.08 332.83 57.47 334.58 55.53 336.57 53.87 338.69 52.39 339.51 51.82 340.56 51.26 341.46 51.7 342.03 51.98 342.35 52.62 342.42 53.25 342.49 53.88 342.34 54.51 342.16 55.12 341 59.23 338.78 63.05 336.21 66.7 330.59 71.19 323.43 73.55 316.08 74.09Z" fill="#FF8C6D"/><path d="M329.5 58.78C326.19 58.82 322.94 60.52 321.03 63.22" stroke="#E0483A" stroke-linecap="round" stroke-linejoin="round" stroke-miterlimit="10" fill="none"/></g></g><g><path d="M376.28 151.38C363.81 145.67 352.2 138.09 341.97 128.96 347.77 116.19 355.7 104.39 365.32 94.18 376.26 99.6 387.2 105.02 398.14 110.44 389.42 123.85 381.82 137.98 376.28 151.38Z" fill="#6CC4BD"/><path d="M364.78 101.93C356.96 111.9 350.68 123.07 346.14 136.46 342.39 133.71 339.16 130.24 336.33 124.87 343.16 113.06 351.24 101.98 360.39 91.87 362.4 94.99 364.4 98.1 364.78 101.93Z" fill="#95DED3"/></g><path d="M384.2 112.49C377.65 135.92 368.1 158.51 357.59 178.73 382.08 189.12 408.92 193.94 438.3 191.27 441.41 164 439.93 136.22 433.94 109.43 416.78 111.34 399.46 111.83 384.2 112.49Z" fill="#6CC4BD"/><g><path d="M388.53 112.9C386.19 116.51 384.93 120.82 384.95 125.13 384.97 129.44 386.28 133.73 388.66 137.31 394.5 137.14 399.92 135.12 404.42 131.65 407.41 135.95 411.93 139.15 417.83 140.74 425.95 134.37 430.18 123.41 428.46 113.24 414.55 112.54 400.61 112.39 388.53 112.9Z" fill="#FFFFFF"/><g><path d="M393.79 117.89C394.52 122.5 395.67 127.53 399.41 130.31 403.78 133.56 410.33 132.32 414.46 128.77 418.59 125.22 420.75 119.91 422.25 114.67 411.96 114.68 401.68 115.59 393.79 117.89Z" fill="#FF8C6D"/><path d="M422.66 115.88C415.41 122.26 405.92 126.06 396.3 126.63 394.66 123.41 393.9 119.77 393.43 116.18 403.16 116.05 412.9 115.92 422.66 115.88Z" fill="#3E2336"/></g></g><path d="M432.71 112.78C446.21 112.63 459.07 112.99 471.53 111.56 472.93 122.63 473.86 135.04 473.8 145.84 459.52 151.48 444.2 154.48 428.84 154.65 430.02 141.1 430.67 127.52 432.71 112.78Z" fill="#6CC4BD"/></g><g><g><path d="M419.66 156.79C421.44 141.57 425.09 126.58 430.95 111.46 433.67 111.24 436.43 111.53 438.99 112.4 433.99 126.59 430.41 141.28 428.32 156.18 425.44 156.15 422.56 156.11 419.66 156.79Z" fill="#1F9EF2"/><path d="M384.9 148.95C385.75 137.95 387.78 127.03 390.94 116.46 388.48 115.98 386.03 115.49 383.57 115.01 379.95 126.07 378.68 137.75 377.43 149.32 379.71 150.02 382.15 150.25 384.9 148.95Z" fill="#1F9EF2"/></g><path d="M420.43 242.71C408.15 234.47 392.81 230.9 378.15 232.87 378.58 229.53 379.18 226.25 379.78 222.98 375.9 225.86 372.75 228.68 369.61 231.49 356.15 226.03 344.97 219.59 334.02 212.79 339.18 201.97 346.19 192.56 354.29 184.21 355.94 180.08 357.5 176.11 358.97 173.16 363.45 164.97 369.74 153.03 375.5 146.24 391.25 149.6 410.15 150.78 430.51 152.76 431.63 160.14 435.08 178.54 439.73 185.77 439.54 191.49 438.94 197.2 437.83 204.59 434.76 218.25 429.23 231.35 420.43 242.71Z" fill="#1F9EF2"/><path d="M424.55 237.9C423.48 241.92 421.77 245.47 419.77 248.39 407.63 239.64 391.75 235.65 376.61 237.48 376.68 234.97 377.12 231.45 377.41 228.34 385.2 224.72 394.2 223.76 402.58 225.63 410.95 227.51 418.67 232.22 424.55 237.9Z" fill="#3EBDF7"/><path d="M369.35 236.07C371.93 233.77 374.17 231.08 375.5 228.1 366.89 214.65 350.88 206.3 334.5 207.14 332.9 210.23 331.3 213.31 329.65 216.13 337.24 216.21 344.61 218.98 351.13 222.88 357.66 226.77 363.43 231.78 369.35 236.07Z" fill="#3EBDF7"/><g><path d="M356.21 181.27C383.31 175.58 414.78 184.72 437.63 199.59" stroke="#1169CF" stroke-linecap="round" stroke-linejoin="round" stroke-miterlimit="10" fill="none"/><path d="M410.72 169.61C411.33 166.98 411.74 164.31 411.94 161.62 403.13 159.22 394.55 157.84 385.4 157.35 384.41 160.1 383.74 162.97 383.3 166.03 382.96 168.41 384 170.79 386.01 172.13 388.3 173.65 390.76 174.99 393.46 176.07 394.68 176.56 396 176.76 397.3 176.63 400.02 176.36 402.76 175.81 405.71 174.9 408.18 174.14 410.13 172.13 410.72 169.61Z" stroke="#1169CF" stroke-linecap="round" stroke-linejoin="round" stroke-miterlimit="10" fill="none"/><path d="M400.73 150.38C400.22 153.16 399.71 155.95 399.19 158.73" stroke="#1169CF" stroke-linecap="round" stroke-linejoin="round" stroke-miterlimit="10" fill="none"/><path d="M394.59 176.8C394.09 178.29 393.6 179.78 392.74 181.9 387.94 195.19 383.75 208.71 380.21 222.39" stroke="#1169CF" stroke-linecap="round" stroke-linejoin="round" stroke-miterlimit="10" fill="none"/><path d="M369.77 188.22C383.79 188.61 397.72 191.62 410.65 197.06" stroke="#1169CF" stroke-linecap="round" stroke-linejoin="round" stroke-miterlimit="10" fill="none"/><path d="M370.55 197.76C382.85 198.1 395.03 201.84 405.39 208.47" stroke="#1169CF" stroke-linecap="round" stroke-linejoin="round" stroke-miterlimit="10" fill="none"/><path d="M426.34 193.75C425.08 197.28 425.43 201.35 427.28 204.62 429.12 207.88 432.43 210.29 436.11 211.03" stroke="#1169CF" stroke-linecap="round" stroke-linejoin="round" stroke-miterlimit="10" fill="none"/><path d="M364.09 180.23C362.55 183.4 360.84 186.6 358.15 188.88 355.46 191.16 351.58 192.35 348.33 190.99" stroke="#1169CF" stroke-linecap="round" stroke-linejoin="round" stroke-miterlimit="10" fill="none"/></g><g><circle cx="423.16" cy="160.86" r="5.21" fill="#FFBE45"/><circle cx="378.71" cy="153.53" r="5.21" fill="#FFBE45"/></g></g><g><path d="M393.77 14.98C381.81 19.61 372.7 30 367.46 41.7 362.22 53.41 360.48 66.38 360.16 79.28 355.29 84.56 355.07 93.02 358.23 99.47 361.39 105.93 367.33 110.62 373.65 114.03 388.36 121.97 406.18 123.94 422.27 119.41 438.36 114.87 452.53 103.88 459.45 88.45 465.64 69.83 461.25 48.08 448.32 33.32 435.37 18.57 413.28 7.42 393.77 14.98Z" fill="#FF8C6D"/><g><g><path d="M416.02 91.7C415.56 87.82 419.5 84.16 424.82 83.52 430.14 82.89 434.83 85.52 435.29 89.4 435.75 93.28 431.81 96.94 426.49 97.58 421.17 98.22 416.48 95.58 416.02 91.7Z" fill="#FB6F60"/><path d="M412.64 83.83C413.12 80.75 415.41 78.55 417.76 78.92 420.11 79.29 421.63 82.08 421.15 85.15 420.67 88.23 418.38 90.43 416.03 90.06 413.68 89.69 412.16 86.9 412.64 83.83Z" fill="#3E2336"/></g><g><ellipse cx="370.75" cy="82.01" rx="7.08" ry="9.7" fill="#FB6F60" transform="matrix(0.4143 -0.9102 0.9102 0.4143 142.51 385.472)"/><path d="M385.19 79.56C385.67 76.48 384.15 73.69 381.8 73.33 379.45 72.96 377.16 75.16 376.68 78.24 376.2 81.32 377.72 84.11 380.07 84.47 382.42 84.83 384.71 82.63 385.19 79.56Z" fill="#3E2336"/></g><path d="M393.53 88.95C392.31 88.26 391.66 86.59 392.02 85.06 392.38 83.52 393.71 82.25 395.13 82.09" stroke="#E0483A" stroke-linecap="round" stroke-linejoin="round" stroke-miterlimit="10" fill="none"/><g><path d="M409.2 104.08C407.59 107.93 403.84 110.32 400.09 110.34 396.34 110.36 392.7 108.2 390.2 104.97 389.95 104.65 389.72 104.33 389.5 103.99 387.43 100.92 386.25 97.12 385.83 93.28 386.12 93.29 386.41 93.29 386.7 93.29L386.71 93.29C394.35 93.36 401.71 92.53 408.72 90.28 408.93 90.98 409.13 91.69 409.31 92.42L409.31 92.43C409.42 92.89 409.54 93.37 409.64 93.84 410.36 97.29 410.54 100.9 409.2 104.08Z" fill="#3E2336"/><path d="M409.2 104.08C407.59 107.93 403.84 110.32 400.09 110.34 396.34 110.36 392.7 108.2 390.2 104.97 389.95 104.65 389.72 104.33 389.5 103.99 391.1 100.98 393.34 98.41 395.97 96.58 396.85 95.97 397.77 95.43 398.72 95 401.41 93.76 404.36 93.26 407.26 93.5 408.05 93.56 408.84 93.67 409.63 93.84 410.36 97.29 410.54 100.9 409.2 104.08Z" fill="#FA4564"/><path d="M409.31 92.42 409.31 92.42C408.64 92.81 407.96 93.16 407.27 93.5L407.26 93.5C403.68 95.22 399.86 96.26 395.97 96.59 394.77 96.69 393.57 96.73 392.37 96.69 390.14 96.62 388.06 95.33 386.71 93.31 394.35 93.38 401.71 92.55 408.72 90.3 408.93 90.99 409.12 91.7 409.31 92.42Z" fill="#FFFFFF"/></g><path d="M413.03 56.4C419.88 55.2 427.35 58.47 430.96 64.25 432.39 59.51 429.61 53.94 424.9 52.06 420.18 50.19 414.18 52.28 413.03 56.4Z" fill="#3E2336"/><path d="M369.49 57.55C373.91 52.76 381.78 51.27 387.82 54.08 386.85 51.13 384.21 48.73 381.09 47.95 377.97 47.17 374.47 48.04 372.15 50.17 369.83 52.29 368.78 55.6 369.49 57.55Z" fill="#3E2336"/></g><path d="M451.54 94.26C450.64 80.33 447.13 66.58 441.24 53.92 425.96 50.1 411.91 39.75 404.58 25.7 406.99 33.55 408.79 40.46 410.59 47.37 410.91 48.62 411.21 50.04 410.51 51.12 409.91 52.04 408.71 52.42 407.61 52.32 406.52 52.22 405.5 51.71 404.55 51.16 394.44 45.41 387.41 34.55 386.29 22.97 372.68 36.04 363.74 52.64 360.85 71.14 354.33 59.42 353.7 44.59 359.22 32.36 364.74 20.13 376.26 10.79 390.86 8.03 407.65-1.84 429.42-2.68 446.92 5.88 464.42 14.43 477.13 32.12 479.66 51.44 480.13 55.04 480.28 58.72 481.35 62.19 482.42 65.66 484.6 69.01 487.95 70.42 491.8 72.04 497.04 71.16 499.48 74.56 501.2 76.96 500.43 80.47 498.52 82.72 496.61 84.97 493.82 86.25 491.13 87.46 494.91 86.99 498.22 91.02 497.85 94.81 497.47 98.6 494.27 101.67 490.66 102.87 487.05 104.08 483.1 103.74 479.36 103.04 481.88 104.26 481.82 108.22 479.85 110.2 477.88 112.19 474.86 112.64 472.06 112.72 466.84 112.86 461.39 111.96 457.15 108.91 452.91 105.85 451.93 100.42 451.54 94.26Z" fill="#3E2336"/><path d="M444.24 94.04C447.37 91.93 450.86 90.18 454.62 89.82 458.38 89.46 462.44 90.68 464.79 93.63 466.59 95.89 467.21 98.97 466.78 101.83 466.35 104.69 464.93 107.34 463.07 109.55 459.76 113.46 454.85 116.1 449.74 116.19 444.62 116.29 439.42 113.66 436.87 109.23" fill="#FF8C6D"/><g><path d="M439.09 53.96C437.26 53.69 435.51 52.96 434.1 51.62 439.2 46.03 443.9 40.06 448.08 33.72 448.97 32.38 450.76 31.87 452.13 32.73 452.15 32.75 452.18 32.76 452.2 32.78 453.55 33.66 453.89 35.49 453.06 36.87 449.24 43.23 444.64 49.11 439.09 53.96Z" fill="#FFBE45"/><path d="M442.99 58.71C442.27 57.58 441.12 55.88 441.29 54.05 446.47 50.87 451.4 47.28 456 43.09 457.77 41.48 460.71 42.15 461.43 44.43 461.44 44.47 461.45 44.51 461.47 44.55 461.84 45.81 461.38 47.18 460.37 48.01 455.12 52.32 449.63 55.99 442.99 58.71Z" fill="#FFBE45"/></g></g><g><g><path d="M477.24 143.49C497.88 135.26 514.77 118.08 522.65 97.31 516.16 93.15 509.67 88.98 503.2 84.76 494.89 97.44 482.29 107.25 467.97 112.23 472.19 121.71 475.43 131.65 477.24 143.49Z" fill="#FF8C6D"/><g><path d="M518.09 98.82C522.77 100.41 527.75 102.02 532.55 100.86 533.63 100.6 534.85 100 535 98.9 535.12 98.03 534.51 97.24 533.89 96.62 532.02 94.7 529.79 93.14 527.35 92.05 531.08 91.49 534.8 91.13 537.94 89.35 539.14 88.67 540.33 87.58 540.28 86.2 540.24 85.21 539.52 84.34 538.65 83.87 537.78 83.4 536.76 83.27 535.77 83.2 532.13 82.94 528.47 83.44 524.85 83.93 527.84 81.75 530.81 79.63 533.78 77.52 534.85 76.76 535.96 75.96 536.64 74.84 537.32 73.71 537.48 72.16 536.65 71.13 536.06 70.39 535.07 70.06 534.12 70.06 533.17 70.06 532.25 70.35 531.36 70.66 527.61 71.97 524.04 73.72 520.47 75.47 521.9 72.56 522.77 69.32 522.99 66.04 523.08 64.66 522.93 63.02 521.75 62.3 520.89 61.77 519.74 61.95 518.88 62.48 518.02 63.01 517.38 63.83 516.77 64.63 513.2 69.27 509.64 73.91 506.07 78.56 504.87 76.25 503.36 74.13 501.68 72.17 501.03 71.41 500.15 70.6 499.17 70.81 498.55 70.94 498.08 71.47 497.85 72.06 497.63 72.65 497.61 73.3 497.63 73.93 497.72 78.2 498.9 82.45 500.47 86.64 504.78 92.36 511.12 96.45 518.09 98.82Z" fill="#FF8C6D"/><path d="M508.96 80.63C512.15 81.5 514.87 83.97 516.04 87.06" stroke="#E0483A" stroke-linecap="round" stroke-linejoin="round" stroke-miterlimit="10" fill="none"/></g></g><path d="M485.43 144.85C481.62 132.86 479.03 120.47 477.4 107.41 473.79 107.49 469.78 108.1 466.07 110.9 466.54 123.68 469.41 136.95 473.69 149.01 478.13 148.71 482.04 147.24 485.43 144.85Z" fill="#95DED3"/></g></g><g><g><g><path d="M569.04 258.44C572.42 256.7 575.71 254.74 578.87 252.55 575.34 250.82 571.67 249.39 567.9 248.26 567.11 244.82 565.91 241.48 564.33 238.32 561.51 240.53 559.17 243.1 557.26 245.92 553.5 245.38 549.69 245.13 545.87 245.17 548.12 248.57 550.37 251.97 552.26 255.38 549.83 258.84 548 262.72 547.48 266.53 551.7 265.45 555.85 264.13 559.91 262.55 562.18 265.26 564.74 267.72 567.54 269.88 568.55 266.08 569.03 262.24 569.04 258.44Z" fill="#FFBE45"/></g></g><g><g><path d="M47.62 65.89C51.8 63.74 55.86 61.32 59.77 58.61 55.41 56.47 50.87 54.71 46.21 53.31 45.23 49.06 43.76 44.93 41.8 41.03 38.31 43.75 35.42 46.94 33.07 50.42 28.43 49.76 23.72 49.44 19 49.49 21.78 53.69 24.56 57.89 26.9 62.1 23.9 66.38 21.63 71.17 20.99 75.88 26.2 74.54 31.34 72.91 36.35 70.96 39.16 74.31 42.31 77.35 45.77 80.01 47.01 75.34 47.61 70.59 47.62 65.89Z" fill="#FFBE45"/></g></g><g><g><path d="M13.34 387.33C15.29 386.33 17.18 385.2 19 383.94 16.97 382.94 14.85 382.12 12.68 381.47 12.22 379.49 11.54 377.57 10.62 375.75 9 377.02 7.65 378.5 6.55 380.12 4.39 379.81 2.19 379.66-0.01 379.69 1.28 381.65 2.58 383.6 3.67 385.57 2.27 387.56 1.21 389.8 0.92 391.99 3.35 391.37 5.74 390.61 8.08 389.7 9.39 391.26 10.86 392.68 12.47 393.92 13.05 391.73 13.33 389.52 13.34 387.33Z" fill="#FFBE45"/></g></g><g><g><path d="M64.9 214.65C65.45 212.53 65.88 210.37 66.15 208.17 64.05 209.02 62.03 210.05 60.1 211.23 58.32 210.25 56.43 209.48 54.47 208.94 54.33 211 54.54 212.99 55.01 214.89 53.34 216.29 51.76 217.83 50.31 219.48 52.63 219.82 54.95 220.16 57.14 220.66 57.69 223.03 58.65 225.31 60.08 227 61.24 224.78 62.27 222.49 63.15 220.14 65.19 220.21 67.22 220.06 69.22 219.68 67.99 217.8 66.53 216.12 64.9 214.65Z" fill="#FFBE45"/></g></g><g><g><path d="M245.41 6.48C245.96 4.36 246.39 2.2 246.66 0 244.56 0.85 242.54 1.88 240.61 3.06 238.83 2.08 236.94 1.31 234.98 0.77 234.84 2.83 235.05 4.82 235.52 6.72 233.85 8.12 232.27 9.66 230.82 11.31 233.14 11.65 235.46 11.99 237.65 12.49 238.2 14.86 239.16 17.14 240.59 18.82 241.75 16.6 242.78 14.31 243.66 11.96 245.7 12.03 247.73 11.88 249.73 11.5 248.5 9.63 247.04 7.95 245.41 6.48Z" fill="#FFBE45"/></g></g><g><g><path d="M551 152.69C551.55 150.57 551.98 148.41 552.25 146.21 550.15 147.06 548.13 148.09 546.2 149.27 544.42 148.29 542.53 147.52 540.57 146.98 540.43 149.04 540.64 151.03 541.11 152.93 539.44 154.33 537.86 155.87 536.41 157.52 538.73 157.86 541.05 158.2 543.24 158.7 543.79 161.07 544.75 163.35 546.18 165.03 547.34 162.81 548.37 160.52 549.25 158.17 551.29 158.24 553.32 158.09 555.32 157.71 554.09 155.84 552.63 154.15 551 152.69Z" fill="#FFBE45"/></g></g></g></svg>