<svg width="2390.78" height="568.81" viewBox="0 0 2390.78 568.81" xmlns="http://www.w3.org/2000/svg" xmlns:xlink="http://www.w3.org/1999/xlink" xml:space="preserve" overflow="visible"><defs></defs><g><g><g><rect x="1699.44" y="0" width="691.34" height="264.09" fill="#98C261"/><path d="M2390.78 45.19 2338.55 45.19 2338.55 99.36 2233.58 99.36 2233.58 136.6 2081.21 136.6 2081.21 231.41 2013.5 231.41 2013.5 99.36 1925.47 99.36 1925.47 146.76 1810.34 146.76 1810.34 214.48 1699.44 214.48 1699.44 264.09 2390.78 264.09Z" fill="#7EA351"/><rect x="1699.44" y="264.09" width="691.34" height="304.72" fill="#764B30"/><path d="M2390.78 498.9 2390.78 353.3 2375.79 353.3 2375.79 404.09 2291.14 404.09 2291.14 346.53 2213.27 346.53 2213.27 299.13 2182.79 299.13 2182.79 336.37 2155.71 336.37 2155.71 390.55 2098.15 390.55 2098.15 336.37 2023.65 336.37 2023.65 404.09 1966.09 404.09 1966.09 316.06 1857.74 316.06 1857.74 353.3 1766.33 353.3 1766.33 414.25 1699.44 414.25 1699.44 475.2 1779.87 475.2 1779.87 568.81 1823.89 568.81 1823.89 444.72 1888.22 444.72 1888.22 505.67 1935.63 505.67 1935.63 465.04 2040.59 465.04 2040.59 519.21 2091.38 519.21 2091.38 468.42 2189.56 468.42 2189.56 529.38 2264.06 529.38 2264.06 485.36 2328.39 485.36 2328.39 498.9Z" fill="#8D573A"/></g><rect x="2181.1" y="394.44" width="44.87" height="44.02" fill="#764B30"/><rect x="2281.84" y="428.86" width="44.86" height="44.02" fill="#764B30"/><rect x="2091.38" y="438.46" width="44.86" height="44.02" fill="#764B30"/><rect x="1935.63" y="441.63" width="44.86" height="44.02" fill="#764B30"/><rect x="1856.62" y="350.43" width="44.86" height="44.01" fill="#764B30"/><rect x="1739.24" y="413.07" width="44.86" height="44.02" fill="#764B30"/><rect x="2165.87" y="223.46" width="54.17" height="44.02" fill="#764B30"/><rect x="1905.15" y="242.08" width="54.17" height="44.02" fill="#764B30"/><rect x="2111.69" y="245.47" width="54.17" height="44.01" fill="#7EA351"/><rect x="2272.52" y="243.26" width="54.17" height="44.02" fill="#7EA351"/><rect x="1998.26" y="254.78" width="54.17" height="44.02" fill="#7EA351"/><rect x="1786.64" y="242.08" width="54.17" height="44.02" fill="#7EA351"/></g><g><g><rect x="0" y="0" width="1741.98" height="264.09" fill="#98C261"/><path d="M1692.13 68.89 1692.13 109.52 1658.27 109.52 1658.27 150.15 1580.4 150.15 1580.4 184.01 1505.9 184.01 1505.9 126.45 1472.05 126.45 1472.05 109.52 1404.32 109.52 1404.32 89.2 1343.38 89.2 1343.38 139.99 1312.91 139.99 1312.91 214.48 1279.05 214.48 1279.05 139.99 1224.87 139.99 1224.87 72.27 1187.63 72.27 1187.63 167.08 1065.74 167.08 1065.74 75.66 954 75.66 954 143.37 893.06 143.37 893.06 177.24 815.17 177.24 815.17 133.22 788.09 133.22 788.09 153.54 710.22 153.54 710.22 45.19 639.11 45.19 639.11 99.36 534.14 99.36 534.14 136.6 381.78 136.6 381.78 231.41 314.06 231.41 314.06 99.36 226.02 99.36 226.02 146.76 110.9 146.76 110.9 214.48 0 214.48 0 264.09 1741.98 264.09 1741.98 68.89Z" fill="#7EA351"/><rect x="0" y="264.09" width="1741.98" height="304.72" fill="#764B30"/><path d="M1685.35 421.03 1741.98 421.03 1741.98 390.55 1705.68 390.55 1705.68 295.74 1610.87 295.74 1610.87 349.92 1505.9 349.92 1505.9 264.09 1468.66 264.09 1468.66 336.37 1421.26 336.37 1421.26 363.46 1360.31 363.46 1360.31 336.37 1268.89 336.37 1268.89 377.01 1180.86 377.01 1180.86 264.09 1163.93 264.09 1163.93 329.6 1058.97 329.6 1058.97 400.71 930.3 400.71 930.3 346.53 845.65 346.53 845.65 316.06 818.57 316.06 818.57 421.03 723.76 421.03 723.76 353.3 676.36 353.3 676.36 404.09 591.7 404.09 591.7 346.53 513.83 346.53 513.83 299.13 483.35 299.13 483.35 336.37 456.27 336.37 456.27 390.55 398.71 390.55 398.71 336.37 324.22 336.37 324.22 404.09 266.66 404.09 266.66 316.06 158.31 316.06 158.31 353.3 66.89 353.3 66.89 414.25 0 414.25 0 475.2 80.44 475.2 80.44 568.81 124.45 568.81 124.45 444.72 188.78 444.72 188.78 505.67 236.19 505.67 236.19 465.04 341.15 465.04 341.15 519.21 391.94 519.21 391.94 468.42 490.13 468.42 490.13 529.38 564.62 529.38 564.62 485.36 628.95 485.36 628.95 498.9 723.76 498.9 723.76 465.04 889.67 465.04 889.67 444.72 1096.21 444.72 1096.21 519.21 1126.68 519.21 1126.68 478.59 1292.59 478.59 1292.59 568.81 1356.92 568.81 1356.92 421.03 1424.65 421.03 1424.65 492.13 1475.44 492.13 1475.44 441.34 1593.94 441.34 1593.94 542.92 1675.2 542.92 1675.2 498.9 1685.35 498.9Z" fill="#8D573A"/></g><path d="M1677.83 321.64 1694.57 321.64 1694.57 320.87C1688.98 321.03 1683.41 321.3 1677.83 321.64Z" fill="#996F58"/><rect x="1522.83" y="223.46" width="54.17" height="44.02" fill="#764B30"/><rect x="984.48" y="223.46" width="54.17" height="44.02" fill="#764B30"/><rect x="700.05" y="223.46" width="54.17" height="44.02" fill="#764B30"/><rect x="481.66" y="394.44" width="44.87" height="44.02" fill="#764B30"/><rect x="582.4" y="428.86" width="44.86" height="44.02" fill="#764B30"/><rect x="856.09" y="367.92" width="44.87" height="44.02" fill="#764B30"/><rect x="811.79" y="432.82" width="44.87" height="44.02" fill="#764B30"/><rect x="979.39" y="382.03" width="44.87" height="44.02" fill="#764B30"/><rect x="1114.83" y="394.44" width="44.86" height="44.02" fill="#764B30"/><rect x="1191.01" y="416.45" width="44.87" height="44.02" fill="#764B30"/><rect x="1296.83" y="360.02" width="44.86" height="44.01" fill="#764B30"/><rect x="1413.21" y="375.26" width="44.87" height="44.02" fill="#764B30"/><rect x="1593.8" y="360.02" width="44.87" height="44.01" fill="#764B30"/><rect x="1628.22" y="438.46" width="44.86" height="44.02" fill="#764B30"/><rect x="1522.83" y="416.45" width="44.87" height="44.02" fill="#764B30"/><rect x="1328.64" y="488.12" width="44.87" height="44.01" fill="#764B30"/><rect x="391.94" y="438.46" width="44.86" height="44.02" fill="#764B30"/><rect x="236.19" y="441.63" width="44.86" height="44.02" fill="#764B30"/><rect x="157.19" y="350.43" width="44.86" height="44.01" fill="#764B30"/><rect x="39.8" y="413.07" width="44.86" height="44.02" fill="#764B30"/><rect x="466.43" y="223.46" width="54.17" height="44.02" fill="#764B30"/><rect x="1147" y="243.26" width="54.17" height="44.02" fill="#764B30"/><rect x="1323.99" y="242.08" width="54.17" height="44.02" fill="#764B30"/><rect x="205.71" y="242.08" width="54.17" height="44.02" fill="#764B30"/><rect x="412.25" y="245.47" width="54.17" height="44.01" fill="#7EA351"/><rect x="573.09" y="243.26" width="54.17" height="44.02" fill="#7EA351"/><rect x="784.71" y="254.78" width="54.17" height="44.02" fill="#7EA351"/><rect x="894.75" y="243.26" width="54.17" height="44.02" fill="#7EA351"/><rect x="1092.83" y="254.78" width="54.17" height="44.02" fill="#7EA351"/><rect x="1242.65" y="254.78" width="54.17" height="44.02" fill="#7EA351"/><rect x="1408.56" y="254.78" width="54.17" height="44.02" fill="#7EA351"/><rect x="1608.33" y="228.54" width="54.17" height="44.02" fill="#7EA351"/><rect x="298.83" y="254.78" width="54.17" height="44.02" fill="#7EA351"/><rect x="87.21" y="242.08" width="54.17" height="44.02" fill="#7EA351"/></g></g></svg>