<svg width="206.3" height="163.58" viewBox="0 0 206.3 163.58" xmlns="http://www.w3.org/2000/svg" xmlns:xlink="http://www.w3.org/1999/xlink" xml:space="preserve" overflow="visible"><defs></defs><g><g><g><rect x="4.95" y="4.95" width="196.4" height="153.67" fill="#96582F"/><path d="M201.35 68.57 183.83 68.57 183.83 20.44 111.15 20.44 111.15 40.81 49.82 40.81 49.82 74.13 4.95 74.13 4.95 107.45 58.9 107.45 58.9 158.63 88.43 158.63 88.43 90.78 131.59 90.78 131.59 124.11 163.39 124.11 163.39 101.9 201.35 101.9Z" fill="#A56033"/></g><rect x="163.39" y="89.09" width="30.09" height="24.07" fill="#7F4C2A"/><rect x="110.39" y="39.23" width="30.1" height="24.06" fill="#7F4C2A"/><rect x="31.65" y="73.48" width="30.1" height="24.06" fill="#7F4C2A"/></g><line x1="4.95" y1="55.89" x2="201.35" y2="55.89" stroke="#4A2A14" stroke-width="9.9045" stroke-miterlimit="10" fill="none"/><line x1="4.95" y1="116.79" x2="201.35" y2="116.79" stroke="#4A2A14" stroke-width="9.9045" stroke-miterlimit="10" fill="none"/><line x1="106.47" y1="4.95" x2="106.47" y2="55.89" stroke="#4A2A14" stroke-width="9.9045" stroke-miterlimit="10" fill="none"/><line x1="106.47" y1="114.3" x2="106.47" y2="158.63" stroke="#4A2A14" stroke-width="9.9045" stroke-miterlimit="10" fill="none"/><line x1="43.38" y1="56.72" x2="43.38" y2="114.3" stroke="#4A2A14" stroke-width="9.9045" stroke-miterlimit="10" fill="none"/><line x1="165.36" y1="56.72" x2="165.36" y2="114.3" stroke="#4A2A14" stroke-width="9.9045" stroke-miterlimit="10" fill="none"/><rect x="4.95" y="4.95" width="196.4" height="153.67" stroke="#4A2A14" stroke-width="9.9045" stroke-miterlimit="10" fill="none"/></g></svg>