<svg width="381.85" height="391.41" viewBox="0 0 381.85 391.41" xmlns="http://www.w3.org/2000/svg" xmlns:xlink="http://www.w3.org/1999/xlink" xml:space="preserve" overflow="visible"><defs></defs><g><rect x="0" y="0" width="381.85" height="391.41" fill="#AD764E"/><rect x="41" y="42.05" width="299.84" height="307.34" fill="#FFCC23"/><g><rect x="51.61" y="318.89" width="29.71" height="30.76" fill="#F5AF2B"/><path d="M313.6 42.05 313.6 72.8 283.91 72.8 283.91 103.57 254.21 103.57 254.21 134.33 224.51 134.33 224.51 165.09 194.81 165.09 194.81 195.83 165.11 195.83 165.11 226.6 135.41 226.6 135.41 257.36 105.71 257.36 105.71 288.12 76.01 288.12 76.01 318.89 76.01 349.65 105.71 349.65 135.41 349.65 165.11 349.65 194.81 349.65 224.51 349.65 254.21 349.65 283.91 349.65 313.6 349.65 343.31 349.65 343.31 318.89 343.31 288.12 343.31 257.36 343.31 226.6 343.31 195.83 343.31 165.09 343.31 134.33 343.31 103.57 343.31 72.8 343.31 42.05Z" fill="#F5AF2B"/></g><rect x="25.2" y="48.3" width="28.5" height="28.51" fill="#AD764E"/><g><rect x="25.2" y="27.07" width="28.5" height="49.74" fill="#AD764E"/><rect x="51.71" y="23.44" width="28.5" height="28.5" fill="#AD764E"/></g><g><rect x="327.49" y="25.26" width="28.5" height="49.71" fill="#AD764E"/><rect x="300.97" y="21.61" width="28.51" height="28.5" fill="#AD764E"/></g><g><rect x="25.53" y="312.76" width="28.5" height="49.72" fill="#AD764E"/><rect x="52.04" y="337.63" width="28.51" height="28.51" fill="#AD764E"/></g><g><rect x="327.83" y="314.59" width="28.5" height="49.72" fill="#AD764E"/><rect x="301.3" y="339.44" width="28.51" height="28.52" fill="#AD764E"/></g><g><g><path d="M105.65 152.34 105.65 123.95 134.05 123.95 134.05 152.34 105.65 152.34ZM162.49 266.06 162.49 209.22 190.94 209.22 190.94 180.78 219.33 180.78 219.33 123.94 134.06 123.94 134.06 95.5 247.77 95.5 247.77 123.95 276.21 123.95 276.21 180.79 247.77 180.79 247.77 209.23 219.32 209.23 219.32 266.07 162.49 266.07ZM162.49 322.9 162.49 294.51 219.33 294.51 219.33 322.9 162.49 322.9Z" fill="#946542"/></g></g></g></svg>