<svg width="112.01" height="111.97" viewBox="0 0 112.01 111.97" xmlns="http://www.w3.org/2000/svg" xmlns:xlink="http://www.w3.org/1999/xlink" xml:space="preserve" overflow="visible"><defs></defs><g><path d="M111.78 40.09C110.11 33.55 96.52 28.78 79.34 26.41 71.94 11.19 63.03 0 54.61 0 46.2 0 37.95 11.06 31.3 26.19 14.13 28.57 0.83 33.98 0.05 43.06-0.7 51.77 6.86 62.93 17.98 73.62 15.41 91.3 16.16 106.18 21.95 109.87 29.85 114.9 43.55 110.42 57.91 101.62 71.02 108.13 82.99 111.41 89.51 108.75 96.91 105.73 97.53 90.12 94.09 71.62 105.78 59.03 113.47 46.71 111.78 40.09Z" fill="#FFC10E"/><path d="M87.41 80.87C90.27 83.31 93.15 85.72 96.04 88.12 95.94 85.45 95.7 82.62 95.33 79.65 93.08 77.85 90.82 76.07 88.57 74.26 82.54 69.41 76.59 64.46 70.59 59.57 68.66 58 66.74 56.41 64.82 54.82 64.98 54.88 65.14 54.94 65.29 54.99 68.34 55.98 71.45 56.82 74.54 57.65 80.12 59.14 85.74 60.46 91.37 61.71 94.44 62.39 97.6 63.14 100.8 63.85 102.2 62.1 103.49 60.38 104.66 58.71 99.44 57.87 94.21 56.92 89 55.9 83.33 54.79 77.7 53.48 72.07 52.18 71.44 52.03 70.76 51.84 70.06 51.63 71.78 51.4 73.43 51.16 74.94 51.03 82.07 50.4 89.18 49.53 96.28 48.66 101.24 48.05 106.2 47.38 111.15 46.68 111.92 44.29 112.18 42.18 111.82 40.43 106.4 41.44 100.99 42.43 95.55 43.3 88.69 44.4 81.82 45.39 74.93 46.31 71.4 46.78 66.77 46.83 62.73 47.72 68.96 43.06 75.12 38.35 81.62 34.05 84.61 32.07 87.86 30.32 91.13 28.58 88.46 27.95 85.61 27.4 82.62 26.92 81.37 27.8 80.14 28.67 78.95 29.48 72.71 33.76 66.51 38.39 60.89 43.56 64.38 37.24 67.86 30.93 71.6 24.74 72.8 22.75 74.04 20.78 75.29 18.82 74.18 16.91 73.06 15.11 71.91 13.43 70.18 16.25 68.47 19.09 66.81 21.95 63.43 27.78 60.19 33.75 57.29 39.85 57.47 33.55 57.08 27.12 57.13 21.17 57.17 15.32 57.27 9.47 57.39 3.62 57.41 2.59 57.47 1.53 57.53 0.46 56.56 0.16 55.59 0 54.61 0 53.69 0 52.76 0.14 51.84 0.4 51.85 0.82 51.86 1.24 51.87 1.65 51.91 7.5 52.01 13.35 52.13 19.2 52.26 25.4 52.06 32.2 52.49 38.82 48.85 34.31 44.76 30.07 41.09 25.67 39.09 23.27 37.2 20.63 35.28 17.99 34.33 19.75 33.39 21.61 32.49 23.54 33.82 25 35.14 26.43 36.37 27.83 40.69 32.77 45.16 38.09 50.2 42.51 42.03 40.4 33.68 38.8 25.46 37.02 19.6 35.75 13.69 34.24 7.74 33.07 5.33 34.48 3.4 36.08 2.07 37.87 9.27 39.75 16.73 40.93 23.96 42.42 30.62 43.8 37.3 45.3 44 46.56 42.94 46.82 41.9 47.08 40.9 47.31 34.62 48.77 28.48 50.94 22.46 53.23 16.98 55.32 11.38 57.37 5.82 59.54 6.86 61.09 8.04 62.66 9.31 64.24 13.62 62.33 17.88 60.34 22.11 58.6 27.56 56.37 33.06 54.25 38.66 52.42 42.47 51.17 46.85 50.49 50.83 49.2 48.83 50.57 46.95 52.18 45.06 53.67 40.5 57.28 35.99 60.94 31.43 64.55 26.9 68.13 22.3 71.63 17.75 75.2 17.44 77.54 17.19 79.81 17 82 21.97 78.18 26.79 74.16 31.6 70.16 36.06 66.46 40.45 62.68 44.84 58.89 45.04 58.72 45.24 58.55 45.44 58.38 40.12 65.36 34.96 72.47 29.82 79.58 25.5 85.56 21.07 91.57 16.9 97.73 17.24 100.91 17.85 103.62 18.77 105.73 23.91 98.63 28.72 91.26 33.72 84.09 38.58 77.12 43.56 70.24 48.52 63.34 46.54 71.06 44.62 78.8 42.7 86.54 40.68 94.69 38.44 102.84 36.74 111.09 38.85 110.59 41.07 109.89 43.35 109 45.09 102.04 46.49 94.99 48.07 88.03 50.01 79.5 51.93 70.98 53.78 62.44 53.82 62.88 53.87 63.32 53.9 63.75 54.39 69.56 55 75.36 55.58 81.16 56.25 88 56.75 94.93 57.57 101.8 57.68 101.73 57.79 101.67 57.89 101.61 59.77 102.54 61.63 103.4 63.45 104.2 62.73 97.57 61.61 90.96 60.67 84.39 59.84 78.62 59.02 72.85 58.19 67.08 57.56 62.66 56.59 58.26 56.22 53.82 56.33 53.9 56.45 53.96 56.57 54 60.74 64.41 65.42 74.62 70.08 84.81 73.72 92.78 77.11 101.54 81.42 109.52 84.1 109.79 86.47 109.66 88.43 109.09 84.9 101.06 80.24 93.33 76.39 85.63 72.25 77.35 68.3 68.98 64.26 60.66 66.6 62.78 68.95 64.9 71.32 66.98 76.66 71.66 82.02 76.28 87.41 80.87Z" fill="#FFD900"/><path d="M87.37 47.05C86.43 43.37 78.79 40.69 69.13 39.36 64.97 30.8 59.96 24.5 55.22 24.5 50.49 24.5 45.85 30.72 42.11 39.23 32.45 40.57 24.97 43.61 24.54 48.72 24.12 53.62 28.37 59.9 34.62 65.91 33.18 75.85 33.6 84.22 36.85 86.3 41.3 89.12 49 86.6 57.07 81.65 64.44 85.31 71.18 87.15 74.84 85.66 79 83.96 79.35 75.18 77.42 64.78 83.99 57.7 88.32 50.77 87.37 47.05Z" fill="#FFF479"/><path d="M19.73 34.17C19.45 33.82 18.99 33.68 18.56 33.57 17.29 33.26 15.97 33.05 14.67 33.22 13.51 33.37 12.4 33.8 11.31 34.23 9.99 34.75 8.65 35.28 7.52 36.13 6.38 36.98 5.45 38.21 5.27 39.61 5.22 40.02 5.24 40.48 5.52 40.79 5.79 41.09 6.22 41.17 6.62 41.21 11.18 41.73 15.95 39.98 19.09 36.62 19.72 35.95 20.3 34.9 19.73 34.17Z" fill="#FFFACB"/><path d="M92.13 34.92C92.8 36.2 94.42 36.91 95.82 36.54 96.23 36.43 96.63 36.23 96.87 35.88 97.27 35.31 97.12 34.49 96.69 33.95 96.26 33.41 95.61 33.09 94.97 32.83 94.47 32.63 93.94 32.46 93.39 32.48 92.85 32.5 92.29 32.75 92.03 33.23 91.74 33.75 91.86 34.4 92.13 34.92Z" fill="#FFFACB"/><path d="M101.74 38.79C102.51 39.18 103.38 39.38 104.24 39.37 104.86 39.36 105.54 39.21 105.91 38.72 106.41 38.05 106.1 37.06 105.52 36.47 104.93 35.88 104.13 35.57 103.41 35.16 102.76 34.79 102.1 34.3 101.36 34.37 100.37 34.46 99.71 35.61 99.89 36.59 100.05 37.57 100.85 38.34 101.74 38.79Z" fill="#FFFACB"/><path d="M87.9 93.65C86.14 93.91 85.34 95.98 85.12 97.74 84.98 98.91 84.94 100.09 85.01 101.26 85.08 102.48 85.42 103.9 86.54 104.39 87.49 104.81 88.65 104.33 89.33 103.54 90.01 102.75 90.32 101.72 90.6 100.72 91.02 99.26 91.43 97.73 91.1 96.26 90.76 94.78 89.4 93.43 87.9 93.65Z" fill="#FFFACB"/><path d="M74.84 85.66C78.66 84.1 79.26 76.58 77.84 67.32 73.76 67.07 69.68 66.71 65.62 66.21 56.67 65.12 47.63 63.41 39.63 59.25 33.87 56.26 28.68 51.83 25.32 46.35 24.88 47.08 24.6 47.87 24.53 48.71 24.11 53.61 28.36 59.89 34.61 65.9 33.17 75.84 33.59 84.21 36.84 86.29 41.3 89.12 49 86.6 57.07 81.65 64.45 85.32 71.18 87.16 74.84 85.66Z" fill="#FFF249"/><path d="M63.22 36.72C63.27 34.75 62.4 32.77 60.9 31.48 59.4 30.19 56.99 28.98 55.37 29.97 53.75 30.96 56.02 35 57.48 37.03 58.13 37.92 58.95 38.75 60 39.07 61.05 39.39 62.36 39.06 62.9 38.1 63.14 37.69 63.2 37.2 63.22 36.72Z" fill="#FFFACB"/><path d="M67.17 43.98C68.1 43.37 68.11 41.87 67.36 41.05 66.61 40.23 65.37 40.01 64.27 40.21 64.22 41.03 64.16 41.88 64.43 42.67 64.69 43.45 65.35 44.17 66.17 44.24 66.51 44.26 66.87 44.17 67.17 43.98Z" fill="#FFFACB"/><path d="M59.63 6.13C59.31 6.37 59.15 6.77 59.07 7.16 58.75 8.64 59.31 10.15 59.93 11.52 61.17 14.29 62.74 17.01 65.17 18.83 65.59 19.15 66.07 19.44 66.6 19.46 67.4 19.48 68.1 18.81 68.34 18.05 68.59 17.29 68.48 16.46 68.31 15.68 67.48 11.95 65.16 8.58 61.97 6.47 61.27 6.01 60.3 5.61 59.63 6.13Z" fill="#FFFACB"/><path d="M69.51 24.24C69.52 25.1 69.8 25.98 70.4 26.59 71 27.2 71.95 27.51 72.76 27.23 74.08 26.78 74.54 25.04 74.14 23.7 73.74 22.35 72.33 21.14 71 21.62 70 21.98 69.5 23.17 69.51 24.24Z" fill="#FFFACB"/></g></svg>