<svg width="237.73" height="156.82" viewBox="0 0 237.73 156.82" xmlns="http://www.w3.org/2000/svg" xmlns:xlink="http://www.w3.org/1999/xlink" xml:space="preserve" overflow="visible"><defs></defs><g><linearGradient x1="29.0235" y1="-1.6979" x2="208.706" y2="177.985" gradientUnits="userSpaceOnUse" id="SVGID_1_"><stop offset="0" stop-color="#FCB44C"/><stop offset="1" stop-color="#EA8124"/></linearGradient><linearGradient x1="28.8291" y1="-1.8922" x2="183.924" y2="153.203" gradientUnits="userSpaceOnUse" id="SVGID_2_"><stop offset="0" stop-color="#E88725"/><stop offset="1" stop-color="#CC6119"/></linearGradient><linearGradient x1="51.1546" y1="20.433" x2="197.812" y2="167.09" gradientUnits="userSpaceOnUse" id="SVGID_3_"><stop offset="0" stop-color="#B9E6EA"/><stop offset="1" stop-color="#81DBE2"/></linearGradient><path d="M224.31 19.47 13.42 19.47C6.01 19.47 0 25.47 0 32.88L0 143.4C0 150.81 6.01 156.82 13.42 156.82L224.32 156.82C231.73 156.82 237.74 150.81 237.74 143.4L237.74 32.88C237.73 25.47 231.72 19.47 224.31 19.47Z" fill="url(#SVGID_1_)"/><path d="M13.42 148.51C10.6 148.51 8.31 146.22 8.31 143.4L8.31 32.88C8.31 30.06 10.6 27.77 13.42 27.77L224.32 27.77C227.14 27.77 229.43 30.06 229.43 32.88L229.43 143.4C229.43 146.22 227.14 148.51 224.32 148.51L13.42 148.51Z" fill="url(#SVGID_2_)"/><path d="M13.42 145.51C12.26 145.51 11.31 144.56 11.31 143.4L11.31 32.88C11.31 31.72 12.26 30.77 13.42 30.77L224.32 30.77C225.48 30.77 226.43 31.72 226.43 32.88L226.43 143.4C226.43 144.56 225.48 145.51 224.32 145.51L13.42 145.51Z" fill="url(#SVGID_3_)"/><g><g><g><linearGradient x1="166.004" y1="-0.2546" x2="204.987" y2="38.7288" gradientUnits="userSpaceOnUse" id="SVGID_4_"><stop offset="0" stop-color="#DD4747"/><stop offset="1" stop-color="#C42626"/></linearGradient><path d="M162.6 33.43C175.84 34.68 189.04 36.49 202.17 38.87 204.77 39.34 207.18 37.46 207.19 34.91 207.2 30.4 207.2 25.89 207.16 21.38 207.16 20.83 207.27 20.28 207.5 19.78 208.76 17.02 210.03 14.27 211.31 11.52 212.44 9.12 210.77 6.31 207.87 5.78 193.9 3.25 179.85 1.33 165.75 0 164.7 11.14 163.65 22.29 162.6 33.43Z" fill="url(#SVGID_4_)"/><path d="M165.75 0C165.31 4.67 164.87 9.34 164.43 14.01 169.45 14.48 174.47 15.03 179.48 15.66 179.48 15.66 179.48 15.66 179.48 15.66 182.63 16.06 185.78 16.48 188.93 16.94 191.88 17.37 193.91 19.95 193.48 22.66 193.48 22.66 193.48 22.66 193.48 22.66 193.95 19.64 192.55 16.59 189.81 14.79 182.02 9.67 174 4.73 165.75 0Z" fill="#771C1C"/></g><g><g><g><linearGradient x1="33.6907" y1="0.6937" x2="70.7775" y2="37.7804" gradientUnits="userSpaceOnUse" id="SVGID_5_"><stop offset="0" stop-color="#DD4747"/><stop offset="1" stop-color="#C42626"/></linearGradient><linearGradient x1="81.2465" y1="-23.8922" x2="142.238" y2="65.039" gradientUnits="userSpaceOnUse" id="SVGID_6_"><stop offset="0" stop-color="#DD4747"/><stop offset="1" stop-color="#C42626"/></linearGradient><path d="M75.13 33.43C61.89 34.68 48.69 36.49 35.56 38.87 32.96 39.34 30.55 37.46 30.54 34.91 30.53 30.4 30.54 25.89 30.57 21.38 30.57 20.83 30.46 20.28 30.23 19.78 28.97 17.02 27.7 14.27 26.42 11.52 25.3 9.12 26.96 6.31 29.86 5.78 43.83 3.25 57.88 1.33 71.98 0 73.03 11.14 74.08 22.29 75.13 33.43Z" fill="url(#SVGID_5_)"/><path d="M188.94 16.95C169.21 14.08 149.34 12.42 129.46 11.99 122.4 11.84 115.34 11.84 108.28 11.99 88.39 12.42 68.53 14.08 48.8 16.95 45.85 17.38 43.81 19.96 44.24 22.67 45.46 30.45 46.68 38.23 47.9 46 48.33 48.72 50.9 50.57 53.63 50.17 72 47.5 90.49 45.96 109.01 45.55 115.58 45.41 122.15 45.41 128.73 45.55 147.24 45.95 165.74 47.49 184.11 50.17 186.85 50.57 189.41 48.72 189.84 46 191.06 38.22 192.28 30.44 193.5 22.67 193.92 19.96 191.89 17.38 188.94 16.95Z" fill="url(#SVGID_6_)"/></g><path d="M71.98 0C72.42 4.67 72.86 9.34 73.3 14.01 68.28 14.48 63.26 15.03 58.25 15.66 58.25 15.66 58.25 15.66 58.25 15.66 55.1 16.06 51.95 16.48 48.8 16.94 45.85 17.37 43.82 19.95 44.25 22.66 44.25 22.66 44.25 22.66 44.25 22.66 43.78 19.64 45.18 16.59 47.92 14.79 55.71 9.67 63.73 4.73 71.98 0Z" fill="#771C1C"/></g><g><path d="M71.21 40.74C68.76 35.35 66.25 29.97 63.67 24.61 64.49 24.51 65.32 24.42 66.14 24.33 67.37 26.98 68.58 29.63 69.78 32.29 70.77 34.47 71.62 36.45 72.28 38.37 72.3 38.37 72.31 38.37 72.33 38.36 72.62 36.37 73.13 34.18 73.69 31.92 74.41 29.06 75.14 26.2 75.89 23.35 76.71 23.28 77.53 23.2 78.34 23.13 76.7 28.91 75.13 34.7 73.64 40.49 72.83 40.57 72.02 40.65 71.21 40.74Z" fill="#FFFFFF"/><path d="M82.57 22.79C83 28.39 83.43 34 83.85 39.6 83.11 39.66 82.37 39.71 81.63 39.77 81.18 34.17 80.72 28.57 80.27 22.97 81.03 22.91 81.8 22.85 82.57 22.79Z" fill="#FFFFFF"/><path d="M99.7 38.11C98.9 38.54 97.29 39.01 95.2 39.12 90.37 39.37 86.52 36.64 86.12 31.13 85.74 25.87 89.26 22.02 94.81 21.74 97.03 21.63 98.45 22.02 99.07 22.29 98.91 22.89 98.75 23.49 98.59 24.09 97.7 23.73 96.45 23.48 94.98 23.56 90.81 23.77 88.21 26.48 88.5 30.9 88.78 35.02 91.38 37.5 95.56 37.28 96.92 37.21 98.28 36.87 99.16 36.41 99.35 36.97 99.53 37.54 99.7 38.11Z" fill="#FFFFFF"/><path d="M105.34 23.45C103.54 23.5 101.74 23.56 99.94 23.63 99.92 23.01 99.89 22.4 99.87 21.78 104.27 21.6 108.67 21.49 113.07 21.44 113.08 22.06 113.08 22.67 113.09 23.29 111.28 23.31 109.47 23.34 107.66 23.39 107.78 28.39 107.9 33.39 108.01 38.39 107.26 38.41 106.51 38.43 105.76 38.45 105.63 33.45 105.48 28.45 105.34 23.45Z" fill="#FFFFFF"/><path d="M130.08 29.79C129.93 35.59 126.26 38.57 121.89 38.54 117.36 38.51 114.14 35.11 114.07 30 114 24.65 117.49 21.1 122.26 21.14 127.15 21.18 130.22 24.79 130.08 29.79ZM116.49 29.94C116.52 33.54 118.53 36.75 122.03 36.77 125.55 36.8 127.61 33.67 127.69 29.84 127.76 26.49 125.98 22.95 122.15 22.92 118.34 22.89 116.46 26.24 116.49 29.94Z" fill="#FFFFFF"/><path d="M133.26 21.85C134.43 21.66 136.1 21.59 137.69 21.65 140.15 21.75 141.72 22.25 142.78 23.26 143.64 24.05 144.08 25.23 144.01 26.53 143.89 28.75 142.35 30.15 140.49 30.66 140.49 30.68 140.49 30.71 140.49 30.73 141.82 31.24 142.56 32.48 142.88 34.25 143.32 36.63 143.65 38.27 143.97 38.94 143.21 38.9 142.44 38.86 141.68 38.82 141.42 38.33 141.11 36.86 140.72 34.74 140.32 32.39 139.42 31.47 137.38 31.32 136.67 31.29 135.96 31.27 135.26 31.24 135.17 33.67 135.09 36.11 135 38.54 134.26 38.51 133.52 38.49 132.78 38.47 132.93 32.93 133.09 27.39 133.26 21.85ZM135.29 29.6C136.06 29.63 136.83 29.66 137.6 29.69 140.02 29.79 141.61 28.59 141.71 26.67 141.82 24.5 140.2 23.46 137.78 23.34 136.67 23.3 135.88 23.37 135.51 23.46 135.43 25.5 135.36 27.55 135.29 29.6Z" fill="#FFFFFF"/><path d="M150.3 39.34C150.46 36.96 150.63 34.58 150.79 32.2 149.17 28.85 147.52 25.5 145.83 22.17 146.7 22.22 147.57 22.27 148.45 22.33 149.19 23.93 149.92 25.53 150.65 27.13 151.24 28.45 151.69 29.51 152.16 30.72 152.18 30.72 152.19 30.72 152.21 30.72 152.78 29.66 153.46 28.6 154.23 27.38 155.19 25.9 156.16 24.42 157.14 22.94 158.01 23.01 158.88 23.08 159.75 23.16 157.49 26.2 155.26 29.26 153.08 32.34 152.9 34.73 152.73 37.11 152.55 39.5 151.79 39.44 151.04 39.39 150.3 39.34Z" fill="#FFFFFF"/></g></g></g></g></g></svg>