<svg width="882.13" height="728.99" viewBox="0 0 882.13 728.99" xmlns="http://www.w3.org/2000/svg" xmlns:xlink="http://www.w3.org/1999/xlink" xml:space="preserve" overflow="visible"><defs></defs><g><rect x="838.02" y="719.88" width="11.03" height="9.11" fill="#292927"/><rect x="198.48" y="710.76" width="11.03" height="9.12" fill="#242825"/><rect x="198.48" y="701.66" width="11.03" height="9.11" fill="#242825"/><rect x="198.48" y="692.55" width="11.03" height="9.11" fill="#242825"/><rect x="198.48" y="683.43" width="11.03" height="9.12" fill="#242825"/><rect x="198.48" y="674.32" width="11.03" height="9.11" fill="#242825"/><rect x="198.48" y="665.2" width="11.03" height="9.12" fill="#242825"/><rect x="198.48" y="656.1" width="11.03" height="9.11" fill="#242825"/><rect x="198.48" y="646.98" width="11.03" height="9.12" fill="#242825"/><rect x="198.48" y="637.87" width="11.03" height="9.11" fill="#242825"/><rect x="749.81" y="628.75" width="11.02" height="9.12" fill="#664E35"/><rect x="198.48" y="628.75" width="11.03" height="9.12" fill="#242825"/><rect x="749.81" y="619.65" width="11.02" height="9.11" fill="#664E35"/><rect x="198.48" y="619.65" width="11.03" height="9.11" fill="#242825"/><rect x="749.81" y="610.53" width="11.02" height="9.11" fill="#664E35"/><rect x="198.48" y="610.53" width="11.03" height="9.11" fill="#242825"/><rect x="749.81" y="601.42" width="11.02" height="9.12" fill="#664E35"/><rect x="198.48" y="601.42" width="11.03" height="9.12" fill="#242825"/><rect x="749.81" y="592.31" width="11.02" height="9.11" fill="#664E35"/><rect x="474.14" y="592.31" width="11.03" height="9.11" fill="#503F28"/><rect x="198.48" y="592.31" width="11.03" height="9.11" fill="#242825"/><rect x="749.81" y="583.19" width="11.02" height="9.12" fill="#664E35"/><path d="M396.96 583.19 385.93 583.19 385.93 592.31 374.9 592.31 374.9 601.42 374.9 610.53 374.9 619.65 374.9 628.75 374.9 637.87 374.9 646.98 374.9 656.1 374.9 665.2 374.9 674.32 374.9 683.43 374.9 692.54 374.9 701.66 374.9 710.76 374.9 719.88 385.93 719.88 396.96 719.88 396.96 710.76 396.96 701.66 396.96 692.54 396.96 683.43 396.96 674.32 396.96 665.2 396.96 656.1 396.96 646.98 396.96 637.87 396.96 628.75 396.96 619.65 396.96 610.53 396.96 601.42 396.96 592.31 407.98 592.31 407.98 583.19Z" fill="#322819"/><rect x="374.9" y="583.19" width="11.03" height="9.12" fill="#664E36"/><rect x="198.48" y="583.19" width="11.03" height="9.12" fill="#242825"/><rect x="749.81" y="574.08" width="11.02" height="9.11" fill="#664E35"/><rect x="198.48" y="574.08" width="11.03" height="9.11" fill="#242825"/><rect x="749.81" y="564.97" width="11.02" height="9.12" fill="#664E35"/><rect x="198.48" y="564.97" width="11.03" height="9.12" fill="#242825"/><rect x="749.81" y="555.86" width="11.02" height="9.11" fill="#664E35"/><rect x="198.48" y="555.86" width="11.03" height="9.11" fill="#242825"/><rect x="198.48" y="546.74" width="11.03" height="9.12" fill="#242825"/><rect x="639.54" y="537.63" width="11.03" height="9.11" fill="#A37F61"/><rect x="595.43" y="537.63" width="11.03" height="9.11" fill="#A37F61"/><rect x="584.41" y="537.63" width="11.03" height="9.11" fill="#A37F61"/><rect x="540.3" y="537.63" width="11.03" height="9.11" fill="#A37F61"/><rect x="529.28" y="537.63" width="11.03" height="9.11" fill="#A37F61"/><rect x="518.25" y="537.63" width="11.03" height="9.11" fill="#A37F61"/><rect x="341.82" y="537.63" width="11.03" height="9.11" fill="#A37F61"/><rect x="297.72" y="537.63" width="11.03" height="9.11" fill="#A37F61"/><rect x="286.69" y="537.63" width="11.03" height="9.11" fill="#A37F61"/><rect x="242.58" y="537.63" width="11.03" height="9.11" fill="#A37F61"/><rect x="231.56" y="537.63" width="11.03" height="9.11" fill="#A37F61"/><rect x="198.48" y="537.63" width="11.03" height="9.11" fill="#242825"/><rect x="705.7" y="528.52" width="11.03" height="9.11" fill="#503F28"/><rect x="694.67" y="528.52" width="11.03" height="9.11" fill="#503F28"/><rect x="683.65" y="528.52" width="11.03" height="9.11" fill="#503F28"/><rect x="198.48" y="528.52" width="11.03" height="9.11" fill="#242825"/><rect x="198.48" y="519.41" width="11.03" height="9.12" fill="#242825"/><rect x="308.74" y="510.3" width="11.02" height="9.11" fill="#161515"/><rect x="518.25" y="501.18" width="11.03" height="9.12" fill="#7A624B"/><rect x="341.82" y="501.18" width="11.03" height="9.12" fill="#7A634C"/><rect x="198.48" y="501.18" width="11.03" height="9.12" fill="#242825"/><rect x="562.35" y="482.96" width="11.03" height="9.12" fill="#604A32"/><rect x="275.66" y="482.96" width="11.03" height="9.12" fill="#59442D"/><rect x="562.35" y="473.85" width="11.03" height="9.11" fill="#604A32"/><rect x="275.66" y="473.85" width="11.03" height="9.11" fill="#59442D"/><rect x="562.35" y="464.73" width="11.03" height="9.12" fill="#604A32"/><rect x="275.66" y="464.73" width="11.03" height="9.12" fill="#5A452E"/><rect x="562.35" y="455.62" width="11.03" height="9.11" fill="#604A32"/><rect x="275.66" y="455.62" width="11.03" height="9.11" fill="#5D4931"/><rect x="562.35" y="446.51" width="11.03" height="9.11" fill="#604A32"/><rect x="275.66" y="446.51" width="11.03" height="9.11" fill="#5D4931"/><rect x="562.35" y="437.4" width="11.03" height="9.12" fill="#604A32"/><rect x="275.66" y="437.4" width="11.03" height="9.12" fill="#5D4931"/><rect x="562.35" y="428.28" width="11.03" height="9.11" fill="#604A32"/><rect x="275.66" y="428.28" width="11.03" height="9.11" fill="#5D4931"/><rect x="551.33" y="419.17" width="11.02" height="9.12" fill="#5F4932"/><rect x="540.3" y="419.17" width="11.03" height="9.12" fill="#5F4932"/><rect x="474.14" y="419.17" width="11.03" height="9.12" fill="#5F4932"/><rect x="463.11" y="419.17" width="11.03" height="9.12" fill="#5F4932"/><rect x="452.09" y="419.17" width="11.02" height="9.12" fill="#5F4932"/><rect x="385.93" y="419.17" width="11.03" height="9.12" fill="#5F4932"/><rect x="374.9" y="419.17" width="11.03" height="9.12" fill="#5F4932"/><rect x="363.87" y="419.17" width="11.03" height="9.12" fill="#5F4932"/><rect x="297.72" y="419.17" width="11.03" height="9.12" fill="#5F4932"/><rect x="286.69" y="419.17" width="11.03" height="9.12" fill="#5F4932"/><g><rect x="352.85" y="519.41" width="11.02" height="9.12" fill="#72573B"/><path d="M286.69 492.07 275.66 492.07 275.66 482.96 275.66 473.85 275.66 464.73 275.66 455.62 264.64 455.62 264.64 446.51 264.64 437.4 264.64 428.28 264.64 419.17 264.64 410.06 264.64 400.95 264.64 391.83 264.64 382.72 253.61 382.72 242.58 382.72 231.56 382.72 231.56 391.83 231.56 400.95 231.56 410.06 231.56 419.17 231.56 428.28 231.56 437.4 231.56 446.51 231.56 455.62 231.56 464.73 231.56 473.85 231.56 482.96 231.56 492.07 231.56 501.18 231.56 510.3 231.56 519.41 231.56 528.52 242.58 528.52 242.58 519.41 242.58 510.3 253.61 510.3 253.61 501.18 264.64 501.18 275.66 501.18 286.69 501.18 286.69 510.3 286.69 519.41 286.69 528.52 297.72 528.52 297.72 519.41 297.72 510.3 308.74 510.3 308.74 501.18 308.74 492.07 297.72 492.07Z" fill="#72573B"/><path d="M705.7 446.51 694.67 446.51 683.65 446.51 683.65 455.62 694.67 455.62 705.7 455.62 716.73 455.62 716.73 446.51Z" fill="#72573B"/><rect x="562.35" y="419.17" width="11.03" height="9.12" fill="#72573B"/><rect x="275.66" y="419.17" width="11.03" height="9.12" fill="#72573B"/></g><g><path d="M297.72 519.41 297.72 528.52 308.74 528.52 308.74 519.41 308.74 510.3 297.72 510.3Z" fill="#695A46"/><rect x="606.46" y="501.18" width="11.03" height="9.12" fill="#695A46"/><path d="M562.35 501.18 551.33 501.18 551.33 510.3 562.35 510.3 573.38 510.3 584.41 510.3 584.41 501.18 573.38 501.18Z" fill="#695A46"/><path d="M496.2 501.18 485.17 501.18 485.17 510.3 496.2 510.3 507.22 510.3 518.25 510.3 518.25 501.18 507.22 501.18Z" fill="#695A46"/><path d="M441.06 501.18 430.04 501.18 430.04 510.3 441.06 510.3 452.09 510.3 463.11 510.3 463.11 501.18 452.09 501.18Z" fill="#695A46"/><path d="M385.93 501.18 374.9 501.18 363.87 501.18 363.87 510.3 374.9 510.3 385.93 510.3 396.96 510.3 407.98 510.3 407.98 501.18 396.96 501.18Z" fill="#695A46"/><path d="M319.77 501.18 308.74 501.18 308.74 510.3 319.77 510.3 330.79 510.3 341.82 510.3 341.82 501.18 330.79 501.18Z" fill="#695A46"/><path d="M264.64 501.18 253.61 501.18 253.61 510.3 264.64 510.3 275.66 510.3 286.69 510.3 286.69 501.18 275.66 501.18Z" fill="#695A46"/><path d="M606.46 373.61 595.43 373.61 584.41 373.61 573.38 373.61 562.35 373.61 551.33 373.61 540.3 373.61 529.28 373.61 518.25 373.61 507.22 373.61 496.2 373.61 485.17 373.61 474.14 373.61 463.11 373.61 452.09 373.61 441.06 373.61 430.04 373.61 419.01 373.61 407.98 373.61 396.96 373.61 385.93 373.61 374.9 373.61 363.87 373.61 352.85 373.61 341.82 373.61 330.79 373.61 319.77 373.61 308.74 373.61 297.72 373.61 286.69 373.61 275.66 373.61 264.64 373.61 264.64 382.72 275.66 382.72 286.69 382.72 297.72 382.72 308.74 382.72 319.77 382.72 330.79 382.72 341.82 382.72 352.85 382.72 363.87 382.72 374.9 382.72 385.93 382.72 396.96 382.72 407.98 382.72 419.01 382.72 430.04 382.72 441.06 382.72 452.09 382.72 463.11 382.72 474.14 382.72 485.17 382.72 496.2 382.72 507.22 382.72 518.25 382.72 529.28 382.72 540.3 382.72 551.33 382.72 562.35 382.72 573.38 382.72 584.41 382.72 595.43 382.72 606.46 382.72 617.49 382.72 617.49 373.61Z" fill="#695A46"/></g><rect x="253.61" y="373.61" width="11.03" height="9.12" fill="#675844"/><rect x="242.58" y="373.61" width="11.03" height="9.12" fill="#675844"/><rect x="231.56" y="373.61" width="11.03" height="9.12" fill="#675844"/><rect x="220.53" y="355.38" width="11.02" height="9.12" fill="#826A52"/><rect x="220.53" y="346.27" width="11.02" height="9.11" fill="#826A52"/><rect x="551.33" y="337.16" width="11.02" height="9.12" fill="#937A65"/><rect x="308.74" y="337.16" width="11.02" height="9.12" fill="#967C65"/><rect x="286.69" y="337.16" width="11.03" height="9.12" fill="#A17F62"/><rect x="220.53" y="337.16" width="11.02" height="9.12" fill="#826A52"/><rect x="33.08" y="337.16" width="11.03" height="9.12" fill="#806F5C"/><rect x="573.38" y="328.05" width="11.03" height="9.11" fill="#484D4C"/><rect x="551.33" y="328.05" width="11.02" height="9.11" fill="#917A65"/><rect x="529.28" y="328.05" width="11.03" height="9.11" fill="#A37F61"/><rect x="308.74" y="328.05" width="11.02" height="9.11" fill="#947A64"/><rect x="297.72" y="328.05" width="11.03" height="9.11" fill="#3F4443"/><rect x="286.69" y="328.05" width="11.03" height="9.11" fill="#A07F62"/><rect x="264.64" y="328.05" width="11.02" height="9.11" fill="#222523"/><rect x="220.53" y="328.05" width="11.02" height="9.11" fill="#826A52"/><rect x="198.48" y="328.05" width="11.03" height="9.11" fill="#997D64"/><rect x="573.38" y="318.93" width="11.03" height="9.12" fill="#4A4F4E"/><rect x="297.72" y="318.93" width="11.03" height="9.12" fill="#414544"/><rect x="264.64" y="318.93" width="11.02" height="9.12" fill="#232624"/><rect x="209.5" y="318.93" width="11.03" height="9.12" fill="#656057"/><rect x="22.06" y="318.93" width="11.02" height="9.12" fill="#8A725B"/><rect x="407.98" y="309.82" width="11.03" height="9.11" fill="#4D3D27"/><rect x="396.96" y="309.82" width="11.03" height="9.11" fill="#5E4931"/><rect x="407.98" y="300.71" width="11.03" height="9.11" fill="#4D3D27"/><rect x="396.96" y="300.71" width="11.03" height="9.11" fill="#5E4931"/><rect x="407.98" y="291.6" width="11.03" height="9.12" fill="#4D3D27"/><rect x="396.96" y="291.6" width="11.03" height="9.12" fill="#5E4931"/><rect x="407.98" y="282.49" width="11.03" height="9.11" fill="#4D3D27"/><rect x="396.96" y="282.49" width="11.03" height="9.11" fill="#5E4931"/><rect x="407.98" y="273.37" width="11.03" height="9.12" fill="#4D3D27"/><rect x="396.96" y="273.37" width="11.03" height="9.12" fill="#5E4931"/><g><path d="M771.86 555.86 760.83 555.86 760.83 564.97 760.83 574.08 760.83 583.19 760.83 592.31 760.83 601.42 760.83 610.53 760.83 619.65 760.83 628.75 760.83 637.87 771.86 637.87 782.89 637.87 793.91 637.87 793.91 628.75 793.91 619.65 793.91 610.53 793.91 601.42 793.91 592.31 793.91 583.19 793.91 574.08 793.91 564.97 793.91 555.86 782.89 555.86Z" fill="#44361F"/><path d="M396.96 482.96 396.96 473.85 396.96 464.73 396.96 455.62 396.96 446.51 396.96 437.4 396.96 428.28 385.93 428.28 374.9 428.28 363.87 428.28 363.87 437.4 363.87 446.51 363.87 455.62 363.87 464.73 363.87 473.85 363.87 482.96 363.87 492.07 374.9 492.07 385.93 492.07 396.96 492.07Z" fill="#44361F"/><path d="M154.37 473.85 154.37 482.96 154.37 492.07 154.37 501.18 154.37 510.3 154.37 519.41 154.37 528.52 165.4 528.52 165.4 519.41 165.4 510.3 165.4 501.18 165.4 492.07 165.4 482.96 165.4 473.85 165.4 464.73 154.37 464.73Z" fill="#44361F"/><path d="M110.27 464.73 110.27 473.85 110.27 482.96 110.27 492.07 110.27 501.18 110.27 510.3 110.27 519.41 110.27 528.52 121.29 528.52 132.32 528.52 132.32 519.41 132.32 510.3 132.32 501.18 132.32 492.07 132.32 482.96 132.32 473.85 132.32 464.73 121.29 464.73Z" fill="#44361F"/><path d="M66.16 464.73 66.16 473.85 66.16 482.96 66.16 492.07 66.16 501.18 66.16 510.3 66.16 519.41 66.16 528.52 77.18 528.52 88.21 528.52 88.21 519.41 88.21 510.3 88.21 501.18 88.21 492.07 88.21 482.96 88.21 473.85 88.21 464.73 77.18 464.73Z" fill="#44361F"/><path d="M694.67 455.62 683.65 455.62 683.65 464.73 683.65 473.85 683.65 482.96 683.65 492.07 683.65 501.18 683.65 510.3 683.65 519.41 683.65 528.52 694.67 528.52 705.7 528.52 716.73 528.52 716.73 519.41 716.73 510.3 716.73 501.18 716.73 492.07 716.73 482.96 716.73 473.85 716.73 464.73 716.73 455.62 705.7 455.62Z" fill="#44361F"/><path d="M540.3 428.28 540.3 437.4 540.3 446.51 540.3 455.62 540.3 464.73 540.3 473.85 540.3 482.96 540.3 492.07 551.33 492.07 562.35 492.07 562.35 482.96 562.35 473.85 562.35 464.73 562.35 455.62 562.35 446.51 562.35 437.4 562.35 428.28 551.33 428.28Z" fill="#44361F"/><path d="M463.11 428.28 452.09 428.28 452.09 437.4 452.09 446.51 452.09 455.62 452.09 464.73 452.09 473.85 452.09 482.96 452.09 492.07 463.11 492.07 474.14 492.07 485.17 492.07 485.17 482.96 485.17 473.85 485.17 464.73 485.17 455.62 485.17 446.51 485.17 437.4 485.17 428.28 474.14 428.28Z" fill="#44361F"/><path d="M286.69 428.28 286.69 437.4 286.69 446.51 286.69 455.62 286.69 464.73 286.69 473.85 286.69 482.96 286.69 492.07 297.72 492.07 308.74 492.07 308.74 482.96 308.74 473.85 308.74 464.73 308.74 455.62 308.74 446.51 308.74 437.4 308.74 428.28 297.72 428.28Z" fill="#44361F"/><path d="M154.37 391.83 154.37 400.95 154.37 410.06 154.37 419.17 154.37 428.28 154.37 437.4 165.4 437.4 165.4 428.28 165.4 419.17 165.4 410.06 165.4 400.95 165.4 391.83 165.4 382.72 154.37 382.72Z" fill="#44361F"/><path d="M110.27 382.72 110.27 391.83 110.27 400.95 110.27 410.06 110.27 419.17 110.27 428.28 110.27 437.4 121.29 437.4 132.32 437.4 132.32 428.28 132.32 419.17 132.32 410.06 132.32 400.95 132.32 391.83 132.32 382.72 121.29 382.72Z" fill="#44361F"/><path d="M66.16 382.72 66.16 391.83 66.16 400.95 66.16 410.06 66.16 419.17 66.16 428.28 66.16 437.4 77.18 437.4 88.21 437.4 88.21 428.28 88.21 419.17 88.21 410.06 88.21 400.95 88.21 391.83 88.21 382.72 77.18 382.72Z" fill="#44361F"/><path d="M452.09 309.82 452.09 300.71 452.09 291.6 452.09 282.49 452.09 273.37 441.06 273.37 441.06 282.49 441.06 291.6 441.06 300.71 441.06 309.82 441.06 318.93 452.09 318.93Z" fill="#44361F"/><path d="M374.9 309.82 374.9 300.71 374.9 291.6 374.9 282.49 374.9 273.37 363.87 273.37 363.87 282.49 363.87 291.6 363.87 300.71 363.87 309.82 363.87 318.93 374.9 318.93Z" fill="#44361F"/><path d="M782.89 273.37 771.86 273.37 760.83 273.37 760.83 282.49 760.83 291.6 760.83 300.71 760.83 309.82 760.83 318.93 760.83 328.05 760.83 337.16 760.83 346.27 760.83 355.38 771.86 355.38 782.89 355.38 793.91 355.38 793.91 346.27 793.91 337.16 793.91 328.05 793.91 318.93 793.91 309.82 793.91 300.71 793.91 291.6 793.91 282.49 793.91 273.37Z" fill="#44361F"/><path d="M485.17 282.49 485.17 291.6 485.17 300.71 485.17 309.82 485.17 318.93 496.2 318.93 496.2 309.82 496.2 300.71 496.2 291.6 496.2 282.49 496.2 273.37 485.17 273.37Z" fill="#44361F"/></g><g><path d="M132.32 346.27 121.3 346.27 110.27 346.27 99.24 346.27 88.21 346.27 77.18 346.27 66.16 346.27 55.13 346.27 55.13 355.38 55.13 364.5 55.13 373.61 55.13 382.73 55.13 391.84 55.13 400.95 55.13 410.06 55.13 419.17 55.13 428.29 55.13 437.4 55.13 446.52 55.13 455.63 55.13 464.74 55.13 473.86 55.13 482.97 55.13 492.09 55.13 501.2 55.13 510.32 55.13 519.43 55.13 528.55 55.13 537.66 55.13 546.77 55.13 555.89 55.13 565 55.13 574.12 55.13 583.23 55.13 592.35 55.13 601.46 55.13 610.58 55.13 619.69 55.13 628.8 55.13 637.92 55.13 647.03 55.13 656.15 55.13 665.26 55.13 674.38 66.15 674.38 77.18 674.38 88.21 674.38 99.24 674.38 110.27 674.38 121.3 674.38 132.32 674.38 143.35 674.38 154.38 674.38 154.38 665.26 154.38 656.15 154.38 647.03 154.38 637.92 154.38 628.8 154.38 619.69 154.38 610.58 154.38 601.46 154.38 592.35 154.38 583.23 154.38 574.12 154.38 565 154.38 555.89 154.38 546.77 154.38 537.66 154.38 528.55 154.38 519.43 154.38 510.32 154.38 501.2 154.38 492.09 154.38 482.97 154.38 473.86 154.38 464.74 154.38 455.63 154.38 446.52 154.38 437.4 154.38 428.29 154.38 419.17 154.38 410.06 154.38 400.95 154.38 391.84 154.38 382.73 154.38 373.61 154.38 364.5 154.38 355.38 154.38 346.27 143.35 346.27 132.32 346.27ZM132.32 391.83 132.32 400.94 132.32 410.05 132.32 419.16 132.32 428.28 132.32 437.39 132.32 446.51 121.3 446.51 110.27 446.51 110.27 437.39 110.27 428.28 110.27 419.16 110.27 410.05 110.27 400.94 110.27 391.83 110.27 382.72 121.3 382.72 132.32 382.72 132.32 391.83ZM132.32 473.85 132.32 482.96 132.32 492.08 132.32 501.19 132.32 510.31 132.32 519.42 132.32 528.54 121.3 528.54 110.27 528.54 110.27 519.42 110.27 510.31 110.27 501.19 110.27 492.08 110.27 482.96 110.27 473.85 110.27 464.73 121.3 464.73 132.32 464.73 132.32 473.85ZM66.16 437.4 66.16 428.29 66.16 419.17 66.16 410.06 66.16 400.95 66.16 391.84 66.16 382.73 77.19 382.73 88.22 382.73 88.22 391.84 88.22 400.95 88.22 410.06 88.22 419.17 88.22 428.29 88.22 437.4 88.22 446.52 77.18 446.52 66.16 446.52 66.16 437.4ZM66.16 519.41 66.16 510.3 66.16 501.18 66.16 492.07 66.16 482.95 66.16 473.84 66.16 464.72 77.19 464.72 88.22 464.72 88.22 473.84 88.22 482.95 88.22 492.07 88.22 501.18 88.22 510.3 88.22 519.41 88.22 528.53 77.18 528.53 66.16 528.53 66.16 519.41Z" fill="#BF8D68"/><path d="M143.35 264.26 132.32 264.26 121.29 264.26 110.27 264.26 99.24 264.26 88.21 264.26 77.18 264.26 66.16 264.26 55.13 264.26 44.11 264.26 33.08 264.26 22.05 264.26 22.05 273.37 22.05 282.49 22.05 291.6 22.05 300.71 33.08 300.71 44.11 300.71 55.13 300.71 66.16 300.71 77.18 300.71 88.21 300.71 99.24 300.71 110.27 300.71 121.29 300.71 132.32 300.71 143.35 300.71 154.37 300.71 154.37 291.6 154.37 282.49 154.37 273.37 154.37 264.26Z" fill="#BF8D68"/></g><rect x="220.53" y="246.03" width="11.02" height="9.11" fill="#242423"/><rect x="11.03" y="246.03" width="11.03" height="9.11"/><rect x="0" y="246.03" width="11.03" height="9.11"/><rect x="496.2" y="236.92" width="11.03" height="9.12" fill="#9B7C61"/><rect x="485.17" y="236.92" width="11.03" height="9.12" fill="#9B7C61"/><rect x="474.14" y="236.92" width="11.03" height="9.12" fill="#9B7C61"/><rect x="463.11" y="236.92" width="11.03" height="9.12" fill="#9B7C61"/><rect x="452.09" y="236.92" width="11.02" height="9.12" fill="#9B7C61"/><rect x="441.06" y="236.92" width="11.03" height="9.12" fill="#9B7C61"/><rect x="430.04" y="236.92" width="11.03" height="9.12" fill="#9B7C61"/><rect x="419.01" y="236.92" width="11.02" height="9.12" fill="#9B7C61"/><rect x="407.98" y="236.92" width="11.03" height="9.12" fill="#9B7C61"/><rect x="396.96" y="236.92" width="11.03" height="9.12" fill="#9B7C61"/><rect x="385.93" y="236.92" width="11.03" height="9.12" fill="#9B7C61"/><rect x="374.9" y="236.92" width="11.03" height="9.12" fill="#9B7C61"/><rect x="363.87" y="236.92" width="11.03" height="9.12" fill="#9B7C61"/><rect x="352.85" y="236.92" width="11.02" height="9.12" fill="#9B7C61"/><rect x="341.82" y="236.92" width="11.03" height="9.12" fill="#91745B"/><rect x="330.8" y="227.81" width="11.02" height="9.11" fill="#282827"/><rect x="209.5" y="227.81" width="11.03" height="9.11" fill="#161515"/><rect x="22.06" y="227.81" width="11.02" height="9.11"/><rect x="33.08" y="218.7" width="11.03" height="9.11" fill="#AE552F"/><rect x="639.54" y="209.58" width="11.03" height="9.12" fill="#767A7D"/><rect x="198.48" y="209.58" width="11.03" height="9.12"/><rect x="187.45" y="209.58" width="11.03" height="9.12" fill="#B1542E"/><rect x="176.42" y="209.58" width="11.03" height="9.12" fill="#CD4D25"/><rect x="849.05" y="200.48" width="11.02" height="9.11" fill="#787C7F"/><rect x="110.27" y="200.48" width="11.03" height="9.11" fill="#D44F23"/><rect x="44.11" y="200.48" width="11.03" height="9.11" fill="#282827"/><g><rect x="474.14" y="583.19" width="11.03" height="9.12" fill="#7E6045"/><rect x="385.93" y="574.08" width="11.03" height="9.11" fill="#7E6045"/><rect x="154.37" y="437.4" width="11.02" height="9.12" fill="#7E6045"/><path d="M110.27 437.4 110.27 446.51 121.29 446.51 132.32 446.51 132.32 437.4 121.29 437.4Z" fill="#7E6045"/><path d="M66.16 437.4 66.16 446.51 77.18 446.51 88.21 446.51 88.21 437.4 77.18 437.4Z" fill="#7E6045"/><path d="M595.43 382.72 584.4 382.72 573.37 382.72 562.34 382.72 551.32 382.72 540.3 382.72 529.27 382.72 518.24 382.72 507.21 382.72 496.2 382.72 485.17 382.72 474.14 382.72 463.11 382.72 452.09 382.72 441.06 382.72 430.03 382.72 419.01 382.72 407.98 382.72 396.95 382.72 385.92 382.72 374.9 382.72 363.87 382.72 352.85 382.72 341.82 382.72 330.79 382.72 319.77 382.72 308.74 382.72 297.71 382.72 286.68 382.72 275.65 382.72 264.63 382.72 264.63 391.83 264.63 400.94 264.63 410.05 264.63 419.16 264.63 428.28 264.63 437.39 264.63 446.51 264.63 455.62 275.65 455.62 275.65 446.51 275.65 437.39 275.65 428.28 275.65 419.16 286.68 419.16 297.71 419.16 308.74 419.16 308.74 428.28 308.74 437.39 308.74 446.51 308.74 455.62 308.74 464.73 308.74 473.85 308.74 482.96 308.74 492.08 308.74 501.19 319.77 501.19 330.79 501.19 341.82 501.19 352.85 501.19 352.85 510.31 352.85 519.42 363.87 519.42 363.87 510.31 363.87 501.19 374.9 501.19 385.93 501.19 396.96 501.19 407.99 501.19 407.99 510.31 407.99 519.42 407.99 528.54 419.02 528.54 419.02 519.42 419.02 510.31 430.04 510.31 430.04 501.19 441.07 501.19 452.1 501.19 463.12 501.19 463.12 510.31 463.12 519.42 463.12 528.54 474.15 528.54 485.18 528.54 485.18 519.42 485.18 510.31 485.18 501.19 496.21 501.19 507.24 501.19 518.27 501.19 529.3 501.19 529.3 510.31 529.3 519.42 529.3 528.54 540.33 528.54 540.33 519.42 540.33 510.31 551.36 510.31 551.36 501.19 562.38 501.19 573.41 501.19 584.44 501.19 584.44 510.31 584.44 519.42 584.44 528.54 595.47 528.54 595.47 519.42 595.47 510.31 606.5 510.31 606.5 501.19 617.53 501.19 617.53 492.08 617.53 482.96 617.53 473.85 617.53 464.73 617.53 455.62 617.53 446.51 617.53 437.39 617.53 428.28 617.53 419.16 617.53 410.05 617.53 400.94 617.53 391.83 617.53 382.72 606.5 382.72 595.43 382.72ZM385.93 492.07 374.9 492.07 363.87 492.07 363.87 482.95 363.87 473.84 363.87 464.72 363.87 455.61 363.87 446.5 363.87 437.38 363.87 428.27 363.87 419.15 374.9 419.15 385.93 419.15 396.96 419.15 396.96 428.27 396.96 437.38 396.96 446.5 396.96 455.61 396.96 464.72 396.96 473.84 396.96 482.95 396.96 492.07 385.93 492.07ZM474.14 492.07 463.11 492.07 452.09 492.07 452.09 482.95 452.09 473.84 452.09 464.72 452.09 455.61 452.09 446.5 452.09 437.38 452.09 428.27 452.09 419.15 463.11 419.15 474.14 419.15 485.17 419.15 485.17 428.27 485.17 437.38 485.17 446.5 485.17 455.61 485.17 464.72 485.17 473.84 485.17 482.95 485.17 492.07 474.14 492.07ZM562.35 492.07 551.33 492.07 540.3 492.07 540.3 482.95 540.3 473.84 540.3 464.72 540.3 455.61 540.3 446.5 540.3 437.38 540.3 428.27 540.3 419.15 551.33 419.15 562.35 419.15 573.38 419.15 573.38 428.27 573.38 437.38 573.38 446.5 573.38 455.61 573.38 464.72 573.38 473.84 573.38 482.95 573.38 492.07 562.35 492.07Z" fill="#7E6045"/><path d="M749.81 273.37 749.81 282.49 749.81 291.6 749.81 300.71 749.81 309.82 749.81 318.93 749.81 328.05 749.81 337.16 749.81 346.27 749.81 355.38 760.83 355.38 760.83 346.27 760.83 337.16 760.83 328.05 760.83 318.93 760.83 309.82 760.83 300.71 760.83 291.6 760.83 282.49 760.83 273.37Z" fill="#7E6045"/><rect x="639.54" y="191.36" width="11.03" height="9.12" fill="#7E6045"/></g><rect x="485.17" y="191.36" width="11.03" height="9.12" fill="#1B1B1A"/><rect x="474.14" y="191.36" width="11.03" height="9.12" fill="#1B1B1A"/><rect x="441.06" y="191.36" width="11.03" height="9.12" fill="#1B1B1A"/><rect x="430.04" y="191.36" width="11.03" height="9.12" fill="#1B1B1A"/><rect x="407.98" y="191.36" width="11.03" height="9.12" fill="#1B1B1A"/><rect x="396.96" y="191.36" width="11.03" height="9.12" fill="#1B1B1A"/><rect x="363.87" y="191.36" width="11.03" height="9.12" fill="#1B1B1A"/><rect x="352.85" y="191.36" width="11.02" height="9.12" fill="#1B1B1A"/><rect x="176.42" y="191.36" width="11.03" height="9.12" fill="#D46737"/><rect x="849.05" y="182.25" width="11.02" height="9.11" fill="#8D7157"/><rect x="628.51" y="182.25" width="11.03" height="9.11" fill="#56534B"/><rect x="463.11" y="182.25" width="11.03" height="9.11" fill="#876D55"/><rect x="441.06" y="182.25" width="11.03" height="9.11" fill="#1B1B1A"/><rect x="407.98" y="182.25" width="11.03" height="9.11" fill="#1B1B1A"/><rect x="396.96" y="182.25" width="11.03" height="9.11" fill="#232522"/><rect x="55.13" y="182.25" width="11.03" height="9.11" fill="#161515"/><rect x="474.14" y="173.13" width="11.03" height="9.12" fill="#282926"/><rect x="441.06" y="173.13" width="11.03" height="9.12" fill="#4C453C"/><rect x="396.96" y="173.13" width="11.03" height="9.12" fill="#9A5D3E"/><rect x="66.16" y="173.13" width="11.02" height="9.12" fill="#BC4726"/><g><rect x="352.85" y="537.63" width="11.02" height="9.11" fill="#9C7757"/><rect x="220.53" y="537.63" width="11.02" height="9.11" fill="#9C7757"/><path d="M463.11 346.27 452.09 346.27 441.06 346.27 430.04 346.27 419.01 346.27 407.98 346.27 407.98 337.16 396.96 337.16 385.93 337.16 385.93 328.05 374.9 328.05 363.87 328.05 363.87 337.16 363.87 346.27 363.87 355.38 363.87 364.5 374.9 364.5 385.93 364.5 396.96 364.5 407.98 364.5 419.01 364.5 430.04 364.5 441.06 364.5 452.09 364.5 463.11 364.5 474.14 364.5 485.17 364.5 485.17 355.38 485.17 346.27 474.14 346.27Z" fill="#9C7757"/><rect x="529.28" y="337.16" width="11.02" height="9.12" fill="#9C7757"/><path d="M363.87 318.93 363.87 309.82 363.87 300.71 352.85 300.71 352.85 291.6 352.85 282.49 352.85 273.37 352.85 264.26 352.85 255.15 352.85 246.03 341.82 246.03 341.82 255.15 341.82 264.26 341.82 273.37 341.82 282.49 341.82 291.6 341.82 300.71 341.82 309.82 341.82 318.93 352.85 318.93Z" fill="#9C7757"/><rect x="22.05" y="309.82" width="11.03" height="9.11" fill="#9C7757"/><path d="M860.07 164.02 849.05 164.02 838.02 164.02 826.99 164.02 826.99 173.13 838.02 173.13 849.05 173.13 860.07 173.13 871.1 173.13 871.1 164.02Z" fill="#9C7757"/></g><rect x="452.09" y="164.02" width="11.02" height="9.11" fill="#D65023"/><rect x="430.04" y="164.02" width="11.03" height="9.11" fill="#D24F23"/><rect x="154.37" y="164.02" width="11.02" height="9.11" fill="#E55525"/><rect x="77.18" y="164.02" width="11.03" height="9.11" fill="#B2542E"/><rect x="485.17" y="145.8" width="11.03" height="9.11" fill="#2A2A28"/><rect x="363.87" y="145.8" width="11.03" height="9.11" fill="#161515"/><rect x="143.35" y="145.8" width="11.03" height="9.11" fill="#E55525"/><rect x="88.21" y="145.8" width="11.03" height="9.11" fill="#D56537"/><g><path d="M507.22 227.81 496.2 227.81 485.17 227.81 474.14 227.81 463.11 227.81 452.09 227.81 441.06 227.81 430.04 227.81 419.01 227.81 407.98 227.81 396.96 227.81 385.93 227.81 374.9 227.81 363.87 227.81 352.85 227.81 341.82 227.81 341.82 236.92 352.85 236.92 363.87 236.92 374.9 236.92 385.93 236.92 396.96 236.92 407.98 236.92 419.01 236.92 430.04 236.92 441.06 236.92 452.09 236.92 463.11 236.92 474.14 236.92 485.17 236.92 496.2 236.92 507.22 236.92 518.25 236.92 518.25 227.81Z" fill="#2A2A28"/><rect x="474.14" y="136.69" width="11.03" height="9.11" fill="#2A2A28"/></g><rect x="396.96" y="136.69" width="11.03" height="9.11" fill="#DA5122"/><rect x="374.9" y="136.69" width="11.03" height="9.11" fill="#AD5630"/><rect x="132.32" y="136.69" width="11.03" height="9.11" fill="#D96333"/><g><path d="M209.5 227.81 198.48 227.81 198.48 218.7 187.45 218.7 176.42 218.7 165.4 218.7 154.37 218.7 143.35 218.7 132.32 218.7 132.32 209.58 121.29 209.58 110.27 209.58 110.27 200.48 99.24 200.48 99.24 191.36 99.24 182.25 88.21 182.25 88.21 173.13 77.18 173.13 77.18 182.25 66.16 182.25 66.16 191.36 55.13 191.36 55.13 200.48 55.13 209.58 44.11 209.58 44.11 218.7 44.11 227.81 33.08 227.81 33.08 236.92 22.06 236.92 22.06 246.03 22.06 255.15 33.08 255.15 44.11 255.15 55.13 255.15 66.16 255.15 77.18 255.15 88.21 255.15 99.24 255.15 110.27 255.15 121.29 255.15 132.32 255.15 143.35 255.15 154.37 255.15 165.4 255.15 176.42 255.15 187.45 255.15 198.48 255.15 209.5 255.15 220.53 255.15 220.53 246.03 220.53 236.92 209.5 236.92Z" fill="#BC4726"/><path d="M485.17 164.02 474.14 164.02 463.11 164.02 463.11 173.13 474.14 173.13 485.17 173.13 496.2 173.13 496.2 164.02Z" fill="#BC4726"/><path d="M419.01 154.91 407.98 154.91 407.98 145.8 396.96 145.8 396.96 136.69 396.96 127.57 385.93 127.57 385.93 136.69 385.93 145.8 374.9 145.8 374.9 154.91 363.87 154.91 363.87 164.02 363.87 173.13 374.9 173.13 385.93 173.13 396.96 173.13 407.98 173.13 419.01 173.13 430.04 173.13 430.04 164.02 419.01 164.02Z" fill="#BC4726"/></g><rect x="374.9" y="127.57" width="11.03" height="9.12" fill="#161515"/><rect x="452.09" y="118.46" width="11.02" height="9.11" fill="#D56637"/><rect x="385.93" y="118.46" width="11.03" height="9.11" fill="#232522"/><rect x="110.27" y="118.46" width="11.03" height="9.11" fill="#E55525"/><rect x="99.24" y="118.46" width="11.03" height="9.11" fill="#161515"/><rect x="385.93" y="109.35" width="11.03" height="9.12" fill="#222523"/><rect x="838.02" y="100.24" width="11.03" height="9.11" fill="#252725"/><rect x="672.62" y="100.24" width="11.03" height="9.11" fill="#A37F61"/><rect x="441.06" y="100.24" width="11.03" height="9.11" fill="#C46E45"/><rect x="396.96" y="100.24" width="11.03" height="9.11" fill="#242423"/><rect x="838.02" y="91.12" width="11.03" height="9.12" fill="#252725"/><rect x="672.62" y="91.12" width="11.03" height="9.12" fill="#A37F61"/><rect x="396.96" y="91.12" width="11.03" height="9.12" fill="#3B3F3E"/><g><path d="M176.42 346.27 165.4 346.27 154.37 346.27 154.37 355.38 154.37 364.5 154.37 373.61 154.37 382.72 165.4 382.72 165.4 391.83 165.4 400.95 165.4 410.06 165.4 419.17 165.4 428.28 165.4 437.4 165.4 446.51 154.37 446.51 154.37 455.62 154.37 464.73 165.4 464.73 165.4 473.85 165.4 482.96 165.4 492.07 165.4 501.18 165.4 510.3 165.4 519.41 165.4 528.52 154.37 528.52 154.37 537.63 154.37 546.74 154.37 555.86 154.37 564.97 154.37 574.08 154.37 583.19 154.37 592.31 154.37 601.42 154.37 610.53 154.37 619.65 154.37 628.75 154.37 637.87 154.37 646.98 154.37 656.1 154.37 665.2 154.37 674.32 143.35 674.32 132.32 674.32 121.29 674.32 110.27 674.32 99.24 674.32 88.21 674.32 77.18 674.32 66.16 674.32 55.13 674.32 55.13 683.43 55.13 692.54 55.13 701.66 55.13 710.76 55.13 719.88 66.16 719.88 77.18 719.88 88.21 719.88 99.24 719.88 110.27 719.88 121.29 719.88 132.32 719.88 143.35 719.88 154.37 719.88 165.4 719.88 176.42 719.88 187.45 719.88 198.48 719.88 198.48 710.76 198.48 701.66 198.48 692.54 198.48 683.43 198.48 674.32 198.48 665.2 198.48 656.1 198.48 646.98 198.48 637.87 198.48 628.75 198.48 619.65 198.48 610.53 198.48 601.42 198.48 592.31 198.48 583.19 198.48 574.08 198.48 564.97 198.48 555.86 198.48 546.74 198.48 537.63 198.48 528.52 198.48 519.41 198.48 510.3 198.48 501.18 198.48 492.07 198.48 482.96 198.48 473.85 198.48 464.73 198.48 455.62 198.48 446.51 198.48 437.4 198.48 428.28 198.48 419.17 198.48 410.06 198.48 400.95 198.48 391.83 198.48 382.72 198.48 373.61 198.48 364.5 198.48 355.38 198.48 346.27 187.45 346.27Z" fill="#BE9375"/><path d="M617.49 337.16 617.49 346.27 606.46 346.27 595.43 346.27 595.43 355.38 595.43 364.5 606.46 364.5 617.49 364.5 628.51 364.5 628.51 355.38 628.51 346.27 628.51 337.16 628.51 328.05 617.49 328.05Z" fill="#BE9375"/><path d="M341.82 337.16 341.82 346.27 330.79 346.27 330.79 355.38 330.79 364.5 341.82 364.5 352.85 364.5 352.85 355.38 352.85 346.27 352.85 337.16 352.85 328.05 341.82 328.05Z" fill="#BE9375"/><path d="M209.5 264.26 198.48 264.26 187.45 264.26 176.42 264.26 165.4 264.26 154.37 264.26 154.37 273.37 154.37 282.49 154.37 291.6 154.37 300.71 154.37 309.82 165.4 309.82 176.42 309.82 187.45 309.82 198.48 309.82 209.5 309.82 220.53 309.82 231.56 309.82 231.56 300.71 231.56 291.6 231.56 282.49 231.56 273.37 231.56 264.26 220.53 264.26Z" fill="#BE9375"/><path d="M815.97 218.7 804.94 218.7 793.91 218.7 782.89 218.7 782.89 227.81 782.89 236.92 782.89 246.03 782.89 255.15 782.89 264.26 782.89 273.37 793.91 273.37 793.91 282.49 793.91 291.6 793.91 300.71 793.91 309.82 793.91 318.93 793.91 328.05 793.91 337.16 793.91 346.27 793.91 355.38 782.89 355.38 782.89 364.5 782.89 373.61 782.89 382.72 782.89 391.83 782.89 400.95 782.89 410.06 782.89 419.17 782.89 428.28 782.89 437.4 782.89 446.51 782.89 455.62 782.89 464.73 782.89 473.85 782.89 482.96 782.89 492.07 782.89 501.18 782.89 510.3 782.89 519.41 782.89 528.52 782.89 537.63 782.89 546.74 782.89 555.86 793.91 555.86 793.91 564.97 793.91 574.08 793.91 583.19 793.91 592.31 793.91 601.42 793.91 610.53 793.91 619.65 793.91 628.75 793.91 637.87 782.89 637.87 782.89 646.98 782.89 656.1 782.89 665.2 782.89 674.32 782.89 683.43 782.89 692.54 782.89 701.66 782.89 710.76 782.89 719.88 793.91 719.88 804.94 719.88 815.97 719.88 826.99 719.88 838.02 719.88 838.02 710.76 838.02 701.66 838.02 692.54 838.02 683.43 838.02 674.32 838.02 665.2 838.02 656.1 838.02 646.98 838.02 637.87 838.02 628.75 838.02 619.65 838.02 610.53 838.02 601.42 838.02 592.31 838.02 583.19 838.02 574.08 838.02 564.97 838.02 555.86 838.02 546.74 838.02 537.63 838.02 528.52 838.02 519.41 838.02 510.3 838.02 501.18 838.02 492.07 838.02 482.96 838.02 473.85 838.02 464.73 838.02 455.62 838.02 446.51 838.02 437.4 838.02 428.28 838.02 419.17 838.02 410.06 838.02 400.95 838.02 391.83 838.02 382.72 838.02 373.61 838.02 364.5 838.02 355.38 838.02 346.27 838.02 337.16 838.02 328.05 838.02 318.93 838.02 309.82 838.02 300.71 838.02 291.6 838.02 282.49 838.02 273.37 838.02 264.26 838.02 255.15 838.02 246.03 838.02 236.92 838.02 227.81 838.02 218.7 826.99 218.7Z" fill="#BE9375"/><path d="M860.07 82.01 849.05 82.01 849.05 91.12 849.05 100.24 849.05 109.35 838.02 109.35 826.99 109.35 826.99 118.46 826.99 127.57 826.99 136.69 826.99 145.8 826.99 154.91 826.99 164.02 838.02 164.02 849.05 164.02 860.07 164.02 871.1 164.02 871.1 154.91 871.1 145.8 871.1 136.69 871.1 127.57 871.1 118.46 871.1 109.35 871.1 100.24 871.1 91.12 871.1 82.01Z" fill="#BE9375"/></g><rect x="838.02" y="82.01" width="11.03" height="9.11" fill="#252725"/><g><path d="M341.82 546.74 341.82 537.63 341.82 528.52 341.82 519.41 330.79 519.41 319.77 519.41 319.77 528.52 319.77 537.63 308.74 537.63 308.74 546.74 297.72 546.74 286.69 546.74 286.69 537.63 275.66 537.63 275.66 528.52 275.66 519.41 264.64 519.41 253.61 519.41 253.61 528.52 253.61 537.63 253.61 546.74 242.58 546.74 231.56 546.74 220.53 546.74 220.53 555.86 220.53 564.97 220.53 574.08 220.53 583.19 220.53 592.31 220.53 601.42 220.53 610.53 220.53 619.65 220.53 628.75 220.53 637.87 220.53 646.98 220.53 656.1 220.53 665.2 220.53 674.32 220.53 683.43 220.53 692.54 231.56 692.54 242.58 692.54 253.61 692.54 264.64 692.54 275.66 692.54 286.69 692.54 297.72 692.54 308.74 692.54 319.77 692.54 330.79 692.54 341.82 692.54 352.85 692.54 363.87 692.54 363.87 683.43 363.87 674.32 363.87 665.2 363.87 656.1 363.87 646.98 363.87 637.87 363.87 628.75 363.87 619.65 363.87 610.53 363.87 601.42 363.87 592.31 363.87 583.19 363.87 574.08 363.87 564.97 363.87 555.86 363.87 546.74 352.85 546.74Z" fill="#AA7E5B"/><path d="M639.54 537.63 639.54 528.52 639.54 519.41 628.51 519.41 617.49 519.41 606.46 519.41 606.46 528.52 606.46 537.63 606.46 546.74 595.43 546.74 584.41 546.74 584.41 537.63 573.38 537.63 573.38 528.52 573.38 519.41 562.35 519.41 551.33 519.41 551.33 528.52 551.33 537.63 551.33 546.74 540.3 546.74 529.28 546.74 518.25 546.74 518.25 537.63 518.25 528.52 518.25 519.41 507.22 519.41 496.2 519.41 496.2 528.52 496.2 537.63 496.2 546.74 496.2 555.86 496.2 564.97 496.2 574.08 496.2 583.19 496.2 592.31 496.2 601.42 496.2 610.53 496.2 619.65 496.2 628.75 496.2 637.87 496.2 646.98 496.2 656.1 496.2 665.2 496.2 674.32 496.2 683.43 496.2 692.54 507.22 692.54 518.25 692.54 529.28 692.54 540.3 692.54 551.33 692.54 562.35 692.54 573.38 692.54 584.41 692.54 595.43 692.54 606.46 692.54 617.49 692.54 628.51 692.54 639.54 692.54 650.57 692.54 650.57 683.43 650.57 674.32 650.57 665.2 650.57 656.1 650.57 646.98 650.57 637.87 650.57 628.75 650.57 619.65 650.57 610.53 650.57 601.42 650.57 592.31 650.57 583.19 650.57 574.08 650.57 564.97 650.57 555.86 650.57 546.74 639.54 546.74Z" fill="#AA7E5B"/><path d="M430.04 519.41 430.04 528.52 430.04 537.63 441.06 537.63 452.09 537.63 452.09 528.52 452.09 519.41 441.06 519.41Z" fill="#AA7E5B"/><path d="M374.9 519.41 374.9 528.52 374.9 537.63 385.93 537.63 396.96 537.63 396.96 528.52 396.96 519.41 385.93 519.41Z" fill="#AA7E5B"/><path d="M253.61 364.5 264.64 364.5 275.66 364.5 286.69 364.5 297.72 364.5 308.74 364.5 319.77 364.5 330.79 364.5 330.79 355.38 330.79 346.27 319.77 346.27 308.74 346.27 297.72 346.27 286.69 346.27 275.66 346.27 264.64 346.27 264.64 337.16 264.64 328.05 253.61 328.05 253.61 337.16 253.61 346.27 242.58 346.27 231.56 346.27 231.56 355.38 231.56 364.5 242.58 364.5Z" fill="#AA7E5B"/><path d="M507.22 355.38 507.22 364.5 518.25 364.5 529.28 364.5 540.3 364.5 551.33 364.5 562.35 364.5 573.38 364.5 584.41 364.5 595.43 364.5 595.43 355.38 595.43 346.27 595.43 337.16 595.43 328.05 584.41 328.05 584.41 337.16 584.41 346.27 573.38 346.27 562.35 346.27 551.33 346.27 540.3 346.27 529.28 346.27 518.25 346.27 507.22 346.27Z" fill="#AA7E5B"/><path d="M220.53 309.82 209.5 309.82 198.48 309.82 187.45 309.82 176.42 309.82 165.4 309.82 154.37 309.82 154.37 300.71 143.35 300.71 132.32 300.71 121.29 300.71 110.27 300.71 99.24 300.71 88.21 300.71 77.18 300.71 66.16 300.71 55.13 300.71 44.11 300.71 33.08 300.71 22.06 300.71 22.06 309.82 33.08 309.82 33.08 318.93 33.08 328.05 44.11 328.05 44.11 337.16 55.13 337.16 55.13 346.27 66.16 346.27 77.18 346.27 88.21 346.27 99.24 346.27 110.27 346.27 121.29 346.27 132.32 346.27 143.35 346.27 154.37 346.27 165.4 346.27 176.42 346.27 187.45 346.27 198.48 346.27 198.48 337.16 198.48 328.05 209.5 328.05 209.5 318.93 220.53 318.93Z" fill="#AA7E5B"/><path d="M496.2 282.49 496.2 291.6 496.2 300.71 496.2 309.83 496.2 318.94 507.23 318.94 507.23 309.83 507.23 300.71 507.23 291.6 507.23 282.49 507.23 273.37 507.23 264.26 507.23 255.14 507.23 246.03 496.2 246.03 485.17 246.03 474.14 246.03 463.11 246.03 452.09 246.03 441.06 246.03 430.03 246.03 419.01 246.03 407.98 246.03 396.95 246.03 385.92 246.03 374.9 246.03 363.87 246.03 352.85 246.03 352.85 255.14 352.85 264.26 352.85 273.37 352.85 282.49 352.85 291.6 352.85 300.71 363.87 300.71 363.87 291.6 363.87 282.49 363.87 273.37 374.9 273.37 374.9 282.49 374.9 291.6 374.9 300.71 374.9 309.83 374.9 318.94 374.9 328.06 385.93 328.06 385.93 337.17 396.96 337.17 407.99 337.17 407.99 346.29 419.02 346.29 430.04 346.29 441.07 346.29 452.1 346.29 463.12 346.29 474.15 346.29 485.18 346.29 485.18 337.17 485.18 328.06 485.18 318.94 485.18 309.83 485.18 300.71 485.18 291.6 485.18 282.49 485.18 273.37 496.21 273.37 496.21 282.49ZM441.06 318.93 441.06 309.82 441.06 300.7 441.06 291.59 441.06 282.48 441.06 273.36 452.09 273.36 452.09 282.48 452.09 291.59 452.09 300.7 452.09 309.82 452.09 318.93 452.09 328.05 441.06 328.05 441.06 318.93ZM396.96 328.05 396.96 318.93 396.96 309.82 396.96 300.7 396.96 291.59 396.96 282.48 396.96 273.36 407.99 273.36 419.02 273.36 419.02 282.48 419.02 291.59 419.02 300.7 419.02 309.82 419.02 318.93 419.02 328.05 407.99 328.05 396.96 328.05Z" fill="#AA7E5B"/><path d="M760.83 218.7 749.81 218.7 738.78 218.7 727.75 218.7 716.73 218.7 705.7 218.7 694.67 218.7 683.65 218.7 683.65 227.81 683.65 236.92 683.65 246.03 683.65 255.15 683.65 264.26 683.65 273.37 683.65 282.49 683.65 291.6 683.65 300.71 683.65 309.82 683.65 318.93 683.65 328.05 683.65 337.16 683.65 346.27 683.65 355.38 683.65 364.5 683.65 373.61 683.65 382.72 683.65 391.83 683.65 400.95 683.65 410.06 683.65 419.17 683.65 428.28 683.65 437.4 683.65 446.51 694.67 446.51 705.7 446.51 716.73 446.51 716.73 455.62 716.73 464.73 716.73 473.85 716.73 482.96 716.73 492.07 716.73 501.18 716.73 510.3 727.75 510.3 727.75 519.41 738.78 519.41 749.81 519.41 760.83 519.41 771.86 519.41 782.89 519.41 782.89 510.3 782.89 501.18 782.89 492.07 782.89 482.96 782.89 473.85 782.89 464.73 782.89 455.62 782.89 446.51 782.89 437.4 782.89 428.28 782.89 419.17 782.89 410.06 782.89 400.95 782.89 391.83 782.89 382.72 782.89 373.61 782.89 364.5 782.89 355.38 771.86 355.38 760.83 355.38 749.81 355.38 749.81 346.27 749.81 337.16 749.81 328.05 749.81 318.93 749.81 309.82 749.81 300.71 749.81 291.6 749.81 282.49 749.81 273.37 760.83 273.37 771.86 273.37 782.89 273.37 782.89 264.26 782.89 255.15 782.89 246.03 782.89 236.92 782.89 227.81 782.89 218.7 771.86 218.7Z" fill="#AA7E5B"/><path d="M815.97 109.35 815.97 100.24 815.97 91.12 815.97 82.01 804.94 82.01 793.91 82.01 793.91 91.12 793.91 100.24 793.91 109.35 782.89 109.35 771.86 109.35 760.83 109.35 760.83 100.24 760.83 91.12 760.83 82.01 749.81 82.01 738.78 82.01 738.78 91.12 738.78 100.24 738.78 109.35 727.75 109.35 716.73 109.35 705.7 109.35 705.7 100.24 705.7 91.12 705.7 82.01 694.67 82.01 683.65 82.01 683.65 91.12 683.65 100.24 683.65 109.35 672.62 109.35 661.59 109.35 650.57 109.35 650.57 100.24 639.54 100.24 639.54 109.35 639.54 118.46 639.54 127.57 639.54 136.69 639.54 145.8 639.54 154.91 639.54 164.02 650.57 164.02 661.59 164.02 672.62 164.02 683.65 164.02 694.67 164.02 705.7 164.02 716.73 164.02 727.75 164.02 738.78 164.02 749.81 164.02 760.83 164.02 771.86 164.02 782.89 164.02 793.91 164.02 804.94 164.02 815.97 164.02 826.99 164.02 826.99 154.91 826.99 145.8 826.99 136.69 826.99 127.57 826.99 118.46 826.99 109.35Z" fill="#AA7E5B"/></g><rect x="672.62" y="82.01" width="11.03" height="9.11" fill="#A37F61"/><g><path d="M628.51 692.54 617.49 692.54 606.46 692.54 595.43 692.54 584.41 692.54 573.38 692.54 562.35 692.54 551.33 692.54 540.3 692.54 529.28 692.54 518.25 692.54 507.22 692.54 496.2 692.54 496.2 683.43 496.2 674.32 496.2 665.2 496.2 656.1 496.2 646.98 496.2 637.87 496.2 628.75 496.2 619.65 496.2 610.53 496.2 601.42 496.2 592.31 496.2 583.19 496.2 574.08 496.2 564.97 496.2 555.86 496.2 546.74 496.2 537.63 485.17 537.63 474.14 537.63 463.11 537.63 452.09 537.63 441.06 537.63 430.04 537.63 419.01 537.63 407.98 537.63 396.96 537.63 385.93 537.63 374.9 537.63 363.87 537.63 363.87 546.74 363.87 555.86 363.87 564.97 363.87 574.08 363.87 583.19 363.87 592.31 363.87 601.42 363.87 610.53 363.87 619.65 363.87 628.75 363.87 637.87 363.87 646.98 363.87 656.1 363.87 665.2 363.87 674.32 363.87 683.43 363.87 692.54 352.85 692.54 341.82 692.54 330.79 692.54 319.77 692.54 308.74 692.54 297.72 692.54 286.69 692.54 275.66 692.54 264.64 692.54 253.61 692.54 242.58 692.54 231.56 692.54 220.53 692.54 220.53 683.43 220.53 674.32 220.53 665.2 220.53 656.1 220.53 646.98 220.53 637.87 220.53 628.75 220.53 619.65 220.53 610.53 220.53 601.42 220.53 592.31 220.53 583.19 220.53 574.08 220.53 564.97 220.53 555.86 220.53 546.74 220.53 537.63 220.53 528.52 220.53 519.41 209.5 519.41 209.5 528.52 209.5 537.63 209.5 546.74 209.5 555.86 209.5 564.97 209.5 574.08 209.5 583.19 209.5 592.31 209.5 601.42 209.5 610.53 209.5 619.65 209.5 628.75 209.5 637.87 209.5 646.98 209.5 656.1 209.5 665.2 209.5 674.32 209.5 683.43 209.5 692.54 209.5 701.66 209.5 710.76 209.5 719.88 220.53 719.88 231.56 719.88 242.58 719.88 253.61 719.88 264.64 719.88 275.66 719.88 286.69 719.88 297.72 719.88 308.74 719.88 319.77 719.88 330.79 719.88 341.82 719.88 352.85 719.88 363.87 719.88 374.9 719.88 374.9 710.76 374.9 701.66 374.9 692.54 374.9 683.43 374.9 674.32 374.9 665.2 374.9 656.1 374.9 646.98 374.9 637.87 374.9 628.75 374.9 619.65 374.9 610.53 374.9 601.42 374.9 592.31 374.9 583.19 385.93 583.19 385.93 574.08 396.96 574.08 407.98 574.08 419.01 574.08 430.04 574.08 441.06 574.08 452.09 574.08 463.11 574.08 463.11 583.19 474.14 583.19 485.17 583.19 485.17 592.31 485.17 601.42 485.17 610.53 485.17 619.65 485.17 628.75 485.17 637.87 485.17 646.98 485.17 656.1 485.17 665.2 485.17 674.32 485.17 683.43 485.17 692.54 485.17 701.66 485.17 710.76 485.17 719.88 496.2 719.88 507.22 719.88 518.25 719.88 529.28 719.88 540.3 719.88 551.33 719.88 562.35 719.88 573.38 719.88 584.41 719.88 595.43 719.88 606.46 719.88 617.49 719.88 628.51 719.88 639.54 719.88 650.57 719.88 650.57 710.76 650.57 701.66 650.57 692.54 639.54 692.54Z" fill="#89694B"/><path d="M44.11 346.27 44.11 355.38 44.11 364.5 44.11 373.61 44.11 382.72 44.11 391.83 44.11 400.95 44.11 410.06 44.11 419.17 44.11 428.28 44.11 437.4 44.11 446.51 44.11 455.62 44.11 464.73 44.11 473.85 44.11 482.96 44.11 492.07 44.11 501.18 44.11 510.3 44.11 519.41 44.11 528.52 44.11 537.63 44.11 546.74 44.11 555.86 44.11 564.97 44.11 574.08 44.11 583.19 44.11 592.31 44.11 601.42 44.11 610.53 44.11 619.65 44.11 628.75 44.11 637.87 44.11 646.98 44.11 656.1 44.11 665.2 44.11 674.32 44.11 683.43 44.11 692.54 44.11 701.66 44.11 710.76 44.11 719.88 55.13 719.88 55.13 710.76 55.13 701.66 55.13 692.54 55.13 683.43 55.13 674.32 55.13 665.2 55.13 656.1 55.13 646.98 55.13 637.87 55.13 628.75 55.13 619.65 55.13 610.53 55.13 601.42 55.13 592.31 55.13 583.19 55.13 574.08 55.13 564.97 55.13 555.86 55.13 546.74 55.13 537.63 55.13 528.52 55.13 519.41 55.13 510.3 55.13 501.18 55.13 492.07 55.13 482.96 55.13 473.85 55.13 464.73 55.13 455.62 55.13 446.51 55.13 437.4 55.13 428.28 55.13 419.17 55.13 410.06 55.13 400.95 55.13 391.83 55.13 382.72 55.13 373.61 55.13 364.5 55.13 355.38 55.13 346.27 55.13 337.16 44.11 337.16Z" fill="#89694B"/><path d="M496.2 337.16 496.2 346.27 496.2 355.38 496.2 364.5 507.22 364.5 507.22 355.38 507.22 346.27 507.22 337.16 507.22 328.05 496.2 328.05Z" fill="#89694B"/><rect x="33.08" y="328.05" width="11.03" height="9.11" fill="#89694B"/><rect x="441.06" y="318.93" width="11.03" height="9.12" fill="#89694B"/><path d="M396.96 318.93 396.96 328.05 407.98 328.05 419.01 328.05 419.01 318.93 407.98 318.93Z" fill="#89694B"/><rect x="363.87" y="318.93" width="11.03" height="9.12" fill="#89694B"/><path d="M11.03 273.37 11.03 282.49 11.03 291.6 11.03 300.71 11.03 309.82 22.06 309.82 22.06 300.71 22.06 291.6 22.06 282.49 22.06 273.37 22.06 264.26 11.03 264.26Z" fill="#89694B"/><path d="M363.87 227.81 374.9 227.81 385.93 227.81 396.96 227.81 407.98 227.81 419.01 227.81 430.04 227.81 441.06 227.81 452.09 227.81 463.11 227.81 474.14 227.81 485.17 227.81 496.2 227.81 507.22 227.81 518.25 227.81 518.25 218.7 518.25 209.58 518.25 200.48 518.25 191.36 518.25 182.25 507.22 182.25 496.2 182.25 496.2 191.36 496.2 200.48 485.17 200.48 474.14 200.48 474.14 191.36 463.11 191.36 463.11 182.25 452.09 182.25 452.09 191.36 452.09 200.48 441.06 200.48 430.04 200.48 430.04 191.36 430.04 182.25 419.01 182.25 419.01 191.36 419.01 200.48 407.98 200.48 396.96 200.48 396.96 191.36 396.96 182.25 385.93 182.25 374.9 182.25 374.9 191.36 374.9 200.48 363.87 200.48 352.85 200.48 352.85 191.36 352.85 182.25 341.82 182.25 341.82 191.36 341.82 200.48 341.82 209.58 341.82 218.7 341.82 227.81 352.85 227.81Z" fill="#89694B"/><path d="M860.07 173.13 849.05 173.13 838.02 173.13 826.99 173.13 826.99 164.02 815.97 164.02 804.94 164.02 793.91 164.02 782.89 164.02 771.86 164.02 760.83 164.02 749.81 164.02 738.78 164.02 727.75 164.02 716.73 164.02 705.7 164.02 694.67 164.02 683.65 164.02 672.62 164.02 661.59 164.02 650.57 164.02 639.54 164.02 639.54 154.91 639.54 145.8 639.54 136.69 639.54 127.57 639.54 118.46 639.54 109.35 639.54 100.24 639.54 91.12 639.54 82.01 628.51 82.01 617.49 82.01 617.49 91.12 617.49 100.24 617.49 109.35 617.49 118.46 617.49 127.57 617.49 136.69 617.49 145.8 617.49 154.91 617.49 164.02 617.49 173.13 628.51 173.13 628.51 182.25 639.54 182.25 639.54 191.36 650.57 191.36 650.57 200.48 650.57 209.58 650.57 218.7 661.59 218.7 661.59 227.81 661.59 236.92 661.59 246.03 661.59 255.15 661.59 264.26 661.59 273.37 661.59 282.49 661.59 291.6 661.59 300.71 661.59 309.82 661.59 318.93 661.59 328.05 661.59 337.16 661.59 346.27 661.59 355.38 661.59 364.5 661.59 373.61 661.59 382.72 661.59 391.83 661.59 400.95 661.59 410.06 661.59 419.17 661.59 428.28 661.59 437.4 661.59 446.51 661.59 455.62 661.59 464.73 661.59 473.85 661.59 482.96 661.59 492.07 661.59 501.18 661.59 510.3 661.59 519.41 661.59 528.52 661.59 537.63 661.59 546.74 661.59 555.86 661.59 564.97 661.59 574.08 661.59 583.19 661.59 592.31 661.59 601.42 661.59 610.53 661.59 619.65 661.59 628.75 661.59 637.87 661.59 646.98 661.59 656.1 661.59 665.2 661.59 674.32 661.59 683.43 661.59 692.54 661.59 701.66 661.59 710.76 661.59 719.88 672.62 719.88 683.65 719.88 694.67 719.88 705.7 719.88 716.73 719.88 727.75 719.88 738.78 719.88 749.81 719.88 760.83 719.88 771.86 719.88 782.89 719.88 782.89 710.76 782.89 701.66 782.89 692.54 782.89 683.43 782.89 674.32 782.89 665.2 782.89 656.1 782.89 646.98 782.89 637.87 771.86 637.87 760.83 637.87 749.81 637.87 749.81 628.75 749.81 619.65 749.81 610.53 749.81 601.42 749.81 592.31 749.81 583.19 749.81 574.08 749.81 564.97 749.81 555.86 760.83 555.86 771.86 555.86 782.89 555.86 782.89 546.74 782.89 537.63 782.89 528.52 782.89 519.41 771.86 519.41 760.83 519.41 749.81 519.41 738.78 519.41 727.75 519.41 727.75 510.3 716.73 510.3 716.73 519.41 716.73 528.52 716.73 537.63 705.7 537.63 694.67 537.63 683.65 537.63 683.65 528.52 683.65 519.41 683.65 510.3 683.65 501.18 683.65 492.07 683.65 482.96 683.65 473.85 683.65 464.73 683.65 455.62 683.65 446.51 683.65 437.4 683.65 428.28 683.65 419.17 683.65 410.06 683.65 400.95 683.65 391.83 683.65 382.72 683.65 373.61 683.65 364.5 683.65 355.38 683.65 346.27 683.65 337.16 683.65 328.05 683.65 318.93 683.65 309.82 683.65 300.71 683.65 291.6 683.65 282.49 683.65 273.37 683.65 264.26 683.65 255.15 683.65 246.03 683.65 236.92 683.65 227.81 683.65 218.7 694.67 218.7 705.7 218.7 716.73 218.7 727.75 218.7 738.78 218.7 749.81 218.7 760.83 218.7 771.86 218.7 782.89 218.7 793.91 218.7 804.94 218.7 815.97 218.7 826.99 218.7 838.02 218.7 838.02 209.58 838.02 200.48 849.05 200.48 849.05 191.36 849.05 182.25 860.07 182.25 871.1 182.25 871.1 173.13Z" fill="#89694B"/></g><rect x="419.01" y="82.01" width="11.02" height="9.11" fill="#D16A3B"/><rect x="198.48" y="82.01" width="11.03" height="9.11" fill="#242824"/><rect x="860.07" y="72.9" width="11.03" height="9.12" fill="#50514C"/><rect x="849.05" y="72.9" width="11.02" height="9.12" fill="#50514C"/><rect x="838.02" y="72.9" width="11.03" height="9.12" fill="#10100F"/><rect x="804.94" y="72.9" width="11.03" height="9.12" fill="#4B4B46"/><rect x="793.91" y="72.9" width="11.03" height="9.12" fill="#4B4B46"/><rect x="749.81" y="72.9" width="11.02" height="9.12" fill="#4B4B46"/><rect x="738.78" y="72.9" width="11.03" height="9.12" fill="#4B4B46"/><rect x="694.67" y="72.9" width="11.03" height="9.12" fill="#4B4B46"/><rect x="683.65" y="72.9" width="11.03" height="9.12" fill="#4B4B46"/><rect x="121.29" y="63.79" width="11.02" height="9.11" fill="#373633"/><rect x="121.29" y="54.68" width="11.02" height="9.11" fill="#373633"/><rect x="121.29" y="45.56" width="11.02" height="9.12" fill="#373633"/><rect x="121.29" y="36.45" width="11.02" height="9.11" fill="#373633"/><rect x="220.53" y="27.33" width="11.02" height="9.12" fill="#61574C"/><rect x="121.29" y="27.33" width="11.02" height="9.12" fill="#373633"/><rect x="121.29" y="18.22" width="11.02" height="9.11" fill="#373633"/><g><path d="M176.42 191.36 176.42 182.25 165.4 182.25 165.4 173.13 154.37 173.13 154.37 164.02 154.37 154.91 143.35 154.91 143.35 145.8 132.32 145.8 132.32 136.69 132.32 127.57 121.29 127.57 110.27 127.57 110.27 136.69 99.24 136.69 99.24 145.8 99.24 154.91 88.21 154.91 88.21 164.02 88.21 173.13 88.21 182.25 99.24 182.25 99.24 191.36 99.24 200.48 110.27 200.48 121.29 200.48 121.29 209.58 132.32 209.58 132.32 218.7 143.35 218.7 154.37 218.7 165.4 218.7 176.42 218.7 176.42 209.58 187.45 209.58 187.45 200.48 176.42 200.48Z" fill="#E55525"/><path d="M474.14 145.8 474.14 136.69 463.11 136.69 463.11 127.57 452.09 127.57 452.09 118.46 452.09 109.35 441.06 109.35 441.06 100.24 441.06 91.12 430.04 91.12 419.01 91.12 419.01 100.24 407.98 100.24 407.98 109.35 396.96 109.35 396.96 118.46 396.96 127.57 396.96 136.69 407.98 136.69 407.98 145.8 407.98 154.91 419.01 154.91 419.01 164.02 430.04 164.02 441.06 164.02 441.06 173.13 452.09 173.13 452.09 164.02 463.11 164.02 474.14 164.02 485.17 164.02 485.17 154.91 485.17 145.8Z" fill="#E55525"/><path d="M297.72 82.01 297.72 72.9 286.69 72.9 286.69 63.79 275.66 63.79 264.64 63.79 264.64 54.68 253.61 54.68 253.61 45.56 242.58 45.56 231.56 45.56 231.56 36.45 220.53 36.45 220.53 27.33 209.5 27.33 209.5 18.22 198.48 18.22 187.45 18.22 187.45 9.11 176.42 9.11 165.4 9.11 154.37 9.11 143.35 9.11 132.32 9.11 132.32 18.22 132.32 27.33 132.32 36.45 132.32 45.56 132.32 54.68 132.32 63.79 132.32 72.9 143.35 72.9 154.37 72.9 165.4 72.9 176.42 72.9 187.45 72.9 187.45 82.01 198.48 82.01 209.5 82.01 220.53 82.01 220.53 91.12 231.56 91.12 242.58 91.12 253.61 91.12 264.64 91.12 275.66 91.12 286.69 91.12 297.72 91.12 308.74 91.12 319.77 91.12 319.77 82.01 308.74 82.01Z" fill="#E55525"/></g><rect x="121.29" y="9.11" width="11.02" height="9.11" fill="#373633"/><g><path d="M815.97 719.88 804.94 719.88 793.91 719.88 782.89 719.88 771.86 719.88 760.83 719.88 749.81 719.88 738.78 719.88 727.75 719.88 716.73 719.88 705.7 719.88 694.67 719.88 683.65 719.88 672.62 719.88 661.59 719.88 661.59 710.76 661.59 701.66 661.59 692.54 661.59 683.43 661.59 674.32 661.59 665.2 661.59 656.1 661.59 646.98 661.59 637.87 661.59 628.75 661.59 619.65 661.59 610.53 661.59 601.42 661.59 592.31 661.59 583.19 661.59 574.08 661.59 564.97 661.59 555.86 661.59 546.74 661.59 537.63 661.59 528.52 661.59 519.41 661.59 510.3 661.59 501.18 661.59 492.07 661.59 482.96 661.59 473.85 661.59 464.73 661.59 455.62 661.59 446.51 661.59 437.4 661.59 428.28 661.59 419.17 661.59 410.06 661.59 400.95 661.59 391.83 661.59 382.72 661.59 373.61 661.59 364.5 661.59 355.38 661.59 346.27 661.59 337.16 661.59 328.05 661.59 318.93 661.59 309.82 661.59 300.71 661.59 291.6 661.59 282.49 661.59 273.37 661.59 264.26 661.59 255.15 661.59 246.03 661.59 236.92 661.59 227.81 661.59 218.7 650.57 218.7 650.57 227.81 650.57 236.92 650.57 246.03 650.57 255.15 650.57 264.26 650.57 273.37 650.57 282.49 650.57 291.6 650.57 300.71 650.57 309.82 650.57 318.93 650.57 328.05 650.57 337.16 650.57 346.27 650.57 355.38 650.57 364.5 650.57 373.61 650.57 382.72 650.57 391.83 650.57 400.95 650.57 410.06 650.57 419.17 650.57 428.28 650.57 437.4 650.57 446.51 650.57 455.62 650.57 464.73 650.57 473.85 650.57 482.96 650.57 492.07 650.57 501.18 650.57 510.3 639.54 510.3 628.51 510.3 628.51 501.18 628.51 492.07 628.51 482.96 628.51 473.85 628.51 464.73 628.51 455.62 628.51 446.51 628.51 437.4 628.51 428.28 628.51 419.17 628.51 410.06 628.51 400.95 628.51 391.83 628.51 382.72 628.51 373.61 639.54 373.61 639.54 364.5 639.54 355.38 639.54 346.27 639.54 337.16 639.54 328.05 639.54 318.93 628.51 318.93 617.49 318.93 606.46 318.93 595.43 318.93 584.41 318.93 584.41 328.05 595.43 328.05 595.43 337.16 595.43 346.27 606.46 346.27 617.49 346.27 617.49 337.16 617.49 328.05 628.51 328.05 628.51 337.16 628.51 346.27 628.51 355.38 628.51 364.5 617.49 364.5 606.46 364.5 595.43 364.5 584.41 364.5 573.38 364.5 562.35 364.5 551.33 364.5 540.3 364.5 529.28 364.5 518.25 364.5 507.22 364.5 496.2 364.5 496.2 355.38 496.2 346.27 496.2 337.16 496.2 328.05 507.22 328.05 507.22 337.16 507.22 346.27 518.25 346.27 529.28 346.27 529.28 337.16 529.28 328.05 540.3 328.05 540.3 337.16 540.3 346.27 551.33 346.27 551.33 337.16 551.33 328.05 562.35 328.05 562.35 337.16 562.35 346.27 573.38 346.27 584.41 346.27 584.41 337.16 573.38 337.16 573.38 328.05 573.38 318.93 562.35 318.93 551.33 318.93 540.3 318.93 529.28 318.93 518.25 318.93 518.25 309.82 518.25 300.71 518.25 291.6 518.25 282.49 518.25 273.37 518.25 264.26 518.25 255.15 518.25 246.03 518.25 236.92 507.22 236.92 507.22 246.03 507.22 255.15 507.22 264.26 507.22 273.37 507.22 282.49 507.22 291.6 507.22 300.71 507.22 309.82 507.22 318.93 496.2 318.93 485.17 318.93 485.17 328.05 485.17 337.16 485.17 346.27 485.17 355.38 485.17 364.5 474.14 364.5 463.11 364.5 452.09 364.5 441.06 364.5 430.04 364.5 419.01 364.5 407.98 364.5 396.96 364.5 385.93 364.5 374.9 364.5 363.87 364.5 363.87 355.38 363.87 346.27 363.87 337.16 363.87 328.05 363.87 318.93 352.85 318.93 341.82 318.93 341.82 309.82 341.82 300.71 341.82 291.6 341.82 282.49 341.82 273.37 341.82 264.26 341.82 255.15 341.82 246.03 341.82 236.92 330.79 236.92 330.79 246.03 330.79 255.15 330.79 264.26 330.79 273.37 330.79 282.49 330.79 291.6 330.79 300.71 330.79 309.82 330.79 318.93 319.77 318.93 308.74 318.93 308.74 328.05 319.77 328.05 319.77 337.16 319.77 346.27 330.79 346.27 341.82 346.27 341.82 337.16 341.82 328.05 352.85 328.05 352.85 337.16 352.85 346.27 352.85 355.38 352.85 364.5 341.82 364.5 330.79 364.5 319.77 364.5 308.74 364.5 297.72 364.5 286.69 364.5 275.66 364.5 264.64 364.5 253.61 364.5 242.58 364.5 231.56 364.5 220.53 364.5 220.53 373.61 220.53 382.72 220.53 391.83 220.53 400.95 220.53 410.06 220.53 419.17 220.53 428.28 220.53 437.4 220.53 446.51 220.53 455.62 220.53 464.73 220.53 473.85 220.53 482.96 220.53 492.07 220.53 501.18 220.53 510.3 209.5 510.3 198.48 510.3 198.48 519.41 209.5 519.41 220.53 519.41 220.53 528.52 220.53 537.63 231.56 537.63 242.58 537.63 253.61 537.63 253.61 528.52 253.61 519.41 264.64 519.41 275.66 519.41 275.66 528.52 275.66 537.63 286.69 537.63 297.72 537.63 308.74 537.63 319.77 537.63 319.77 528.52 319.77 519.41 308.74 519.41 308.74 528.52 297.72 528.52 286.69 528.52 286.69 519.41 286.69 510.3 275.66 510.3 264.64 510.3 253.61 510.3 242.58 510.3 242.58 519.41 242.58 528.52 231.56 528.52 231.56 519.41 231.56 510.3 231.56 501.18 231.56 492.07 231.56 482.96 231.56 473.85 231.56 464.73 231.56 455.62 231.56 446.51 231.56 437.4 231.56 428.28 231.56 419.17 231.56 410.06 231.56 400.95 231.56 391.83 231.56 382.72 231.56 373.61 242.58 373.61 253.61 373.61 264.64 373.61 275.66 373.61 286.69 373.61 297.72 373.61 308.74 373.61 319.77 373.61 330.79 373.61 341.82 373.61 352.85 373.61 363.87 373.61 374.9 373.61 385.93 373.61 396.96 373.61 407.98 373.61 419.01 373.61 430.04 373.61 441.06 373.61 452.09 373.61 463.11 373.61 474.14 373.61 485.17 373.61 496.2 373.61 507.22 373.61 518.25 373.61 529.28 373.61 540.3 373.61 551.33 373.61 562.35 373.61 573.38 373.61 584.41 373.61 595.43 373.61 606.46 373.61 617.49 373.61 617.49 382.72 617.49 391.83 617.49 400.95 617.49 410.06 617.49 419.17 617.49 428.28 617.49 437.4 617.49 446.51 617.49 455.62 617.49 464.73 617.49 473.85 617.49 482.96 617.49 492.07 617.49 501.18 617.49 510.3 606.46 510.3 595.43 510.3 595.43 519.41 595.43 528.52 584.41 528.52 584.41 519.41 584.41 510.3 573.38 510.3 562.35 510.3 551.33 510.3 540.3 510.3 540.3 519.41 540.3 528.52 529.28 528.52 529.28 519.41 529.28 510.3 518.25 510.3 507.22 510.3 496.2 510.3 485.17 510.3 485.17 519.41 485.17 528.52 474.14 528.52 463.11 528.52 463.11 519.41 463.11 510.3 452.09 510.3 441.06 510.3 430.04 510.3 419.01 510.3 419.01 519.41 419.01 528.52 407.98 528.52 407.98 519.41 407.98 510.3 396.96 510.3 385.93 510.3 374.9 510.3 363.87 510.3 363.87 519.41 363.87 528.52 352.85 528.52 352.85 519.41 352.85 510.3 341.82 510.3 330.79 510.3 319.77 510.3 319.77 519.41 330.79 519.41 341.82 519.41 341.82 528.52 341.82 537.63 352.85 537.63 363.87 537.63 374.9 537.63 374.9 528.52 374.9 519.41 385.93 519.41 396.96 519.41 396.96 528.52 396.96 537.63 407.98 537.63 419.01 537.63 430.04 537.63 430.04 528.52 430.04 519.41 441.06 519.41 452.09 519.41 452.09 528.52 452.09 537.63 463.11 537.63 474.14 537.63 485.17 537.63 496.2 537.63 496.2 528.52 496.2 519.41 507.22 519.41 518.25 519.41 518.25 528.52 518.25 537.63 529.28 537.63 540.3 537.63 551.33 537.63 551.33 528.52 551.33 519.41 562.35 519.41 573.38 519.41 573.38 528.52 573.38 537.63 584.41 537.63 595.43 537.63 606.46 537.63 606.46 528.52 606.46 519.41 617.49 519.41 628.51 519.41 639.54 519.41 639.54 528.52 639.54 537.63 650.57 537.63 650.57 546.74 650.57 555.86 650.57 564.97 650.57 574.08 650.57 583.19 650.57 592.31 650.57 601.42 650.57 610.53 650.57 619.65 650.57 628.75 650.57 637.87 650.57 646.98 650.57 656.1 650.57 665.2 650.57 674.32 650.57 683.43 650.57 692.54 650.57 701.66 650.57 710.76 650.57 719.88 639.54 719.88 628.51 719.88 617.49 719.88 606.46 719.88 595.43 719.88 584.41 719.88 573.38 719.88 562.35 719.88 551.33 719.88 540.3 719.88 529.28 719.88 518.25 719.88 507.22 719.88 496.2 719.88 485.17 719.88 474.14 719.88 463.11 719.88 452.09 719.88 441.06 719.88 430.04 719.88 419.01 719.88 407.98 719.88 396.96 719.88 385.93 719.88 374.9 719.88 363.87 719.88 352.85 719.88 341.82 719.88 330.79 719.88 319.77 719.88 308.74 719.88 297.72 719.88 286.69 719.88 275.66 719.88 264.64 719.88 253.61 719.88 242.58 719.88 231.56 719.88 220.53 719.88 209.5 719.88 198.48 719.88 187.45 719.88 176.42 719.88 165.4 719.88 154.37 719.88 143.35 719.88 132.32 719.88 121.29 719.88 110.27 719.88 99.24 719.88 88.21 719.88 77.18 719.88 66.16 719.88 55.13 719.88 44.11 719.88 44.11 710.76 44.11 701.66 44.11 692.54 44.11 683.43 44.11 674.32 44.11 665.2 44.11 656.1 44.11 646.98 44.11 637.87 44.11 628.75 44.11 619.65 44.11 610.53 44.11 601.42 44.11 592.31 44.11 583.19 44.11 574.08 44.11 564.97 44.11 555.86 44.11 546.74 44.11 537.63 44.11 528.52 44.11 519.41 44.11 510.3 44.11 501.18 44.11 492.07 44.11 482.96 44.11 473.85 44.11 464.73 44.11 455.62 44.11 446.51 44.11 437.4 44.11 428.28 44.11 419.17 44.11 410.06 44.11 400.95 44.11 391.83 44.11 382.72 44.11 373.61 44.11 364.5 44.11 355.38 44.11 346.27 33.08 346.27 33.08 355.38 33.08 364.5 33.08 373.61 33.08 382.72 33.08 391.83 33.08 400.95 33.08 410.06 33.08 419.17 33.08 428.28 33.08 437.4 33.08 446.51 33.08 455.62 33.08 464.73 33.08 473.85 33.08 482.96 33.08 492.07 33.08 501.18 33.08 510.3 33.08 519.41 33.08 528.52 33.08 537.63 33.08 546.74 33.08 555.86 33.08 564.97 33.08 574.08 33.08 583.19 33.08 592.31 33.08 601.42 33.08 610.53 33.08 619.65 33.08 628.75 33.08 637.87 33.08 646.98 33.08 656.1 33.08 665.2 33.08 674.32 33.08 683.43 33.08 692.54 33.08 701.66 33.08 710.76 33.08 719.88 33.08 728.99 44.11 728.99 55.13 728.99 66.16 728.99 77.18 728.99 88.21 728.99 99.24 728.99 110.27 728.99 121.29 728.99 132.32 728.99 143.35 728.99 154.37 728.99 165.4 728.99 176.42 728.99 187.45 728.99 198.48 728.99 209.5 728.99 220.53 728.99 231.56 728.99 242.58 728.99 253.61 728.99 264.64 728.99 275.66 728.99 286.69 728.99 297.72 728.99 308.74 728.99 319.77 728.99 330.79 728.99 341.82 728.99 352.85 728.99 363.87 728.99 374.9 728.99 385.93 728.99 396.96 728.99 407.98 728.99 419.01 728.99 430.04 728.99 441.06 728.99 452.09 728.99 463.11 728.99 474.14 728.99 485.17 728.99 496.2 728.99 507.22 728.99 518.25 728.99 529.28 728.99 540.3 728.99 551.33 728.99 562.35 728.99 573.38 728.99 584.41 728.99 595.43 728.99 606.46 728.99 617.49 728.99 628.51 728.99 639.54 728.99 650.57 728.99 661.59 728.99 672.62 728.99 683.65 728.99 694.67 728.99 705.7 728.99 716.73 728.99 727.75 728.99 738.78 728.99 749.81 728.99 760.83 728.99 771.86 728.99 782.89 728.99 793.91 728.99 804.94 728.99 815.97 728.99 826.99 728.99 838.02 728.99 838.02 719.88 826.99 719.88Z"/><rect x="297.72" y="337.16" width="11.03" height="9.12"/><path d="M198.48 346.27 198.48 355.38 198.48 364.5 198.48 373.61 198.48 382.72 198.48 391.83 198.48 400.95 198.48 410.06 198.48 419.17 198.48 428.28 198.48 437.4 198.48 446.51 198.48 455.62 198.48 464.73 198.48 473.85 198.48 482.96 198.48 492.07 198.48 501.18 209.5 501.18 209.5 492.07 209.5 482.96 209.5 473.85 209.5 464.73 209.5 455.62 209.5 446.51 209.5 437.4 209.5 428.28 209.5 419.17 209.5 410.06 209.5 400.95 209.5 391.83 209.5 382.72 209.5 373.61 209.5 364.5 209.5 355.38 209.5 346.27 209.5 337.16 198.48 337.16Z"/><rect x="209.5" y="328.05" width="11.03" height="9.11"/><path d="M33.08 328.05 22.06 328.05 22.06 337.16 22.06 346.27 33.08 346.27 33.08 337.16Z"/><path d="M297.72 318.93 286.69 318.93 275.66 318.93 275.66 328.05 275.66 337.16 264.64 337.16 264.64 346.27 275.66 346.27 286.69 346.27 286.69 337.16 286.69 328.05 297.72 328.05Z"/><path d="M220.53 318.93 220.53 328.05 231.56 328.05 231.56 337.16 231.56 346.27 242.58 346.27 253.61 346.27 253.61 337.16 253.61 328.05 264.64 328.05 264.64 318.93 253.61 318.93 242.58 318.93 231.56 318.93 231.56 309.82 220.53 309.82Z"/><path d="M22.06 309.82 11.03 309.82 11.03 300.71 11.03 291.6 11.03 282.49 11.03 273.37 11.03 264.26 22.06 264.26 33.08 264.26 44.11 264.26 55.13 264.26 66.16 264.26 77.18 264.26 88.21 264.26 99.24 264.26 110.27 264.26 121.29 264.26 132.32 264.26 143.35 264.26 154.37 264.26 165.4 264.26 176.42 264.26 187.45 264.26 198.48 264.26 209.5 264.26 220.53 264.26 231.56 264.26 231.56 273.37 231.56 282.49 231.56 291.6 231.56 300.71 231.56 309.82 242.58 309.82 242.58 300.71 242.58 291.6 242.58 282.49 242.58 273.37 242.58 264.26 242.58 255.15 231.56 255.15 220.53 255.15 209.5 255.15 198.48 255.15 187.45 255.15 176.42 255.15 165.4 255.15 154.37 255.15 143.35 255.15 132.32 255.15 121.29 255.15 110.27 255.15 99.24 255.15 88.21 255.15 77.18 255.15 66.16 255.15 55.13 255.15 44.11 255.15 33.08 255.15 22.06 255.15 11.03 255.15 0 255.15 0 264.26 0 273.37 0 282.49 0 291.6 0 300.71 0 309.82 0 318.93 11.03 318.93 11.03 328.05 22.06 328.05 22.06 318.93Z"/><rect x="220.53" y="236.92" width="11.03" height="9.12"/><rect x="11.03" y="236.92" width="11.03" height="9.12"/><path d="M529.28 227.81 529.28 218.7 529.28 209.58 529.28 200.48 529.28 191.36 529.28 182.25 529.28 173.13 518.25 173.13 507.22 173.13 507.22 164.02 496.2 164.02 496.2 173.13 485.17 173.13 485.17 182.25 474.14 182.25 474.14 191.36 485.17 191.36 496.2 191.36 496.2 182.25 507.22 182.25 518.25 182.25 518.25 191.36 518.25 200.48 518.25 209.58 518.25 218.7 518.25 227.81 518.25 236.92 529.28 236.92Z"/><path d="M220.53 218.7 209.5 218.7 198.48 218.7 198.48 227.81 209.5 227.81 220.53 227.81Z"/><rect x="22.06" y="218.7" width="11.02" height="9.11"/><path d="M44.11 209.58 44.11 200.48 33.08 200.48 33.08 209.58 33.08 218.7 44.11 218.7Z"/><path d="M838.02 209.58 838.02 218.7 838.02 227.81 838.02 236.92 838.02 246.03 838.02 255.15 838.02 264.26 838.02 273.37 838.02 282.49 838.02 291.6 838.02 300.71 838.02 309.82 838.02 318.93 838.02 328.05 838.02 337.16 838.02 346.27 838.02 355.38 838.02 364.5 838.02 373.61 838.02 382.72 838.02 391.83 838.02 400.95 838.02 410.06 838.02 419.17 838.02 428.28 838.02 437.4 838.02 446.51 838.02 455.62 838.02 464.73 838.02 473.85 838.02 482.96 838.02 492.07 838.02 501.18 838.02 510.3 838.02 519.41 838.02 528.52 838.02 537.63 838.02 546.74 838.02 555.86 838.02 564.97 838.02 574.08 838.02 583.19 838.02 592.31 838.02 601.42 838.02 610.53 838.02 619.65 838.02 628.75 838.02 637.87 838.02 646.98 838.02 656.1 838.02 665.2 838.02 674.32 838.02 683.43 838.02 692.54 838.02 701.66 838.02 710.76 838.02 719.88 849.05 719.88 849.05 710.76 849.05 701.66 849.05 692.54 849.05 683.43 849.05 674.32 849.05 665.2 849.05 656.1 849.05 646.98 849.05 637.87 849.05 628.75 849.05 619.65 849.05 610.53 849.05 601.42 849.05 592.31 849.05 583.19 849.05 574.08 849.05 564.97 849.05 555.86 849.05 546.74 849.05 537.63 849.05 528.52 849.05 519.41 849.05 510.3 849.05 501.18 849.05 492.07 849.05 482.96 849.05 473.85 849.05 464.73 849.05 455.62 849.05 446.51 849.05 437.4 849.05 428.28 849.05 419.17 849.05 410.06 849.05 400.95 849.05 391.83 849.05 382.72 849.05 373.61 849.05 364.5 849.05 355.38 849.05 346.27 849.05 337.16 849.05 328.05 849.05 318.93 849.05 309.82 849.05 300.71 849.05 291.6 849.05 282.49 849.05 273.37 849.05 264.26 849.05 255.15 849.05 246.03 849.05 236.92 849.05 227.81 849.05 218.7 849.05 209.58 849.05 200.48 838.02 200.48Z"/><rect x="639.54" y="200.48" width="11.03" height="9.11"/><path d="M187.45 209.58 198.48 209.58 198.48 200.48 198.48 191.36 187.45 191.36 187.45 200.48Z"/><rect x="849.05" y="191.36" width="11.02" height="9.12"/><rect x="628.51" y="191.36" width="11.03" height="9.12"/><rect x="44.11" y="191.36" width="11.02" height="9.12"/><rect x="860.07" y="182.25" width="11.03" height="9.11"/><rect x="176.42" y="182.25" width="11.03" height="9.11"/><rect x="617.49" y="173.13" width="11.03" height="9.12"/><path d="M463.11 173.13 452.09 173.13 452.09 182.25 463.11 182.25 474.14 182.25 474.14 173.13Z"/><path d="M430.04 182.25 430.04 191.36 441.06 191.36 441.06 182.25 441.06 173.13 430.04 173.13 419.01 173.13 407.98 173.13 407.98 182.25 419.01 182.25Z"/><path d="M165.4 182.25 176.42 182.25 176.42 173.13 176.42 164.02 165.4 164.02 165.4 173.13Z"/><rect x="55.13" y="173.13" width="11.03" height="9.12"/><path d="M617.49 164.02 617.49 154.91 617.49 145.8 617.49 136.69 617.49 127.57 617.49 118.46 617.49 109.35 617.49 100.24 617.49 91.12 617.49 82.01 628.51 82.01 639.54 82.01 639.54 91.12 639.54 100.24 650.57 100.24 650.57 91.12 650.57 82.01 650.57 72.9 650.57 63.79 639.54 63.79 628.51 63.79 617.49 63.79 617.49 72.9 606.46 72.9 606.46 82.01 606.46 91.12 606.46 100.24 606.46 109.35 606.46 118.46 606.46 127.57 606.46 136.69 606.46 145.8 606.46 154.91 606.46 164.02 606.46 173.13 617.49 173.13Z"/><path d="M77.18 164.02 88.21 164.02 88.21 154.91 88.21 145.8 77.18 145.8 77.18 154.91 66.16 154.91 66.16 164.02 66.16 173.13 77.18 173.13Z"/><rect x="485.17" y="154.91" width="11.03" height="9.12"/><path d="M154.37 164.02 165.4 164.02 165.4 154.91 165.4 145.8 154.37 145.8 154.37 154.91Z"/><path d="M352.85 154.91 352.85 164.02 341.82 164.02 341.82 173.13 330.79 173.13 330.79 182.25 330.79 191.36 330.79 200.48 330.79 209.58 330.79 218.7 330.79 227.81 341.82 227.81 341.82 218.7 341.82 209.58 341.82 200.48 341.82 191.36 341.82 182.25 352.85 182.25 352.85 191.36 363.87 191.36 374.9 191.36 374.9 182.25 385.93 182.25 396.96 182.25 396.96 173.13 385.93 173.13 374.9 173.13 363.87 173.13 363.87 164.02 363.87 154.91 363.87 145.8 352.85 145.8Z"/><rect x="363.87" y="136.69" width="11.03" height="9.11"/><rect x="143.35" y="136.69" width="11.03" height="9.11"/><rect x="88.21" y="136.69" width="11.03" height="9.11"/><path d="M463.11 136.69 474.14 136.69 485.17 136.69 485.17 127.57 474.14 127.57 474.14 118.46 463.11 118.46 463.11 127.57Z"/><rect x="132.32" y="127.57" width="11.03" height="9.12"/><rect x="99.24" y="127.57" width="11.03" height="9.12"/><path d="M121.29 127.57 132.32 127.57 132.32 118.46 132.32 109.35 121.29 109.35 121.29 100.24 121.29 91.12 132.32 91.12 132.32 82.01 143.35 82.01 154.37 82.01 165.4 82.01 165.4 91.12 176.42 91.12 187.45 91.12 198.48 91.12 198.48 82.01 187.45 82.01 187.45 72.9 176.42 72.9 165.4 72.9 154.37 72.9 143.35 72.9 132.32 72.9 121.29 72.9 121.29 63.79 121.29 54.68 121.29 45.56 121.29 36.45 121.29 27.33 121.29 18.22 121.29 9.11 132.32 9.11 143.35 9.11 154.37 9.11 165.4 9.11 176.42 9.11 187.45 9.11 187.45 18.22 198.48 18.22 209.5 18.22 209.5 27.33 220.53 27.33 231.56 27.33 231.56 18.22 220.53 18.22 220.53 9.11 209.5 9.11 198.48 9.11 198.48 0 187.45 0 176.42 0 165.4 0 154.37 0 143.35 0 132.32 0 121.29 0 110.27 0 110.27 9.11 110.27 18.22 110.27 27.33 110.27 36.45 110.27 45.56 110.27 54.68 110.27 63.79 110.27 72.9 110.27 82.01 110.27 91.12 110.27 100.24 110.27 109.35 110.27 118.46 121.29 118.46Z"/><path d="M452.09 118.46 463.11 118.46 463.11 109.35 463.11 100.24 452.09 100.24 452.09 109.35Z"/><path d="M661.59 109.35 672.62 109.35 672.62 100.24 672.62 91.12 672.62 82.01 683.65 82.01 683.65 72.9 694.67 72.9 705.7 72.9 705.7 82.01 705.7 91.12 705.7 100.24 705.7 109.35 716.73 109.35 727.75 109.35 738.78 109.35 738.78 100.24 738.78 91.12 738.78 82.01 738.78 72.9 749.81 72.9 760.83 72.9 760.83 82.01 760.83 91.12 760.83 100.24 760.83 109.35 771.86 109.35 782.89 109.35 793.91 109.35 793.91 100.24 793.91 91.12 793.91 82.01 793.91 72.9 804.94 72.9 815.97 72.9 815.97 82.01 815.97 91.12 815.97 100.24 815.97 109.35 826.99 109.35 838.02 109.35 838.02 100.24 826.99 100.24 826.99 91.12 826.99 82.01 826.99 72.9 826.99 63.79 815.97 63.79 804.94 63.79 793.91 63.79 782.89 63.79 782.89 72.9 782.89 82.01 782.89 91.12 782.89 100.24 771.86 100.24 771.86 91.12 771.86 82.01 771.86 72.9 771.86 63.79 760.83 63.79 749.81 63.79 738.78 63.79 727.75 63.79 727.75 72.9 727.75 82.01 727.75 91.12 727.75 100.24 716.73 100.24 716.73 91.12 716.73 82.01 716.73 72.9 716.73 63.79 705.7 63.79 694.67 63.79 683.65 63.79 672.62 63.79 661.59 63.79 661.59 72.9 661.59 82.01 661.59 91.12 661.59 100.24 650.57 100.24 650.57 109.35Z"/><rect x="441.06" y="91.12" width="11.03" height="9.12"/><path d="M419.01 91.12 419.01 82.01 407.98 82.01 407.98 91.12 407.98 100.24 419.01 100.24Z"/><path d="M430.04 91.12 441.06 91.12 441.06 82.01 441.06 72.9 430.04 72.9 430.04 63.79 419.01 63.79 419.01 72.9 419.01 82.01 430.04 82.01Z"/><rect x="209.5" y="82.01" width="11.03" height="9.11"/><path d="M871.1 63.79 860.07 63.79 849.05 63.79 838.02 63.79 838.02 72.9 849.05 72.9 860.07 72.9 871.1 72.9 871.1 82.01 871.1 91.12 871.1 100.24 871.1 109.35 871.1 118.46 871.1 127.57 871.1 136.69 871.1 145.8 871.1 154.91 871.1 164.02 871.1 173.13 871.1 182.25 882.13 182.25 882.13 173.13 882.13 164.02 882.13 154.91 882.13 145.8 882.13 136.69 882.13 127.57 882.13 118.46 882.13 109.35 882.13 100.24 882.13 91.12 882.13 82.01 882.13 72.9 882.13 63.79Z"/><path d="M264.64 54.68 264.64 63.79 275.66 63.79 286.69 63.79 286.69 72.9 297.72 72.9 297.72 82.01 308.74 82.01 319.77 82.01 319.77 91.12 308.74 91.12 297.72 91.12 286.69 91.12 275.66 91.12 264.64 91.12 253.61 91.12 242.58 91.12 231.56 91.12 220.53 91.12 220.53 100.24 231.56 100.24 242.58 100.24 253.61 100.24 264.64 100.24 275.66 100.24 286.69 100.24 297.72 100.24 308.74 100.24 319.77 100.24 330.79 100.24 330.79 91.12 341.82 91.12 352.85 91.12 352.85 82.01 341.82 82.01 330.79 82.01 330.79 72.9 319.77 72.9 308.74 72.9 308.74 63.79 297.72 63.79 297.72 54.68 286.69 54.68 275.66 54.68 275.66 45.56 264.64 45.56 253.61 45.56 253.61 54.68Z"/><path d="M231.56 45.56 242.58 45.56 253.61 45.56 253.61 36.45 242.58 36.45 242.58 27.33 231.56 27.33 231.56 36.45Z"/></g></g></svg>